<svg width="555" height="364" viewBox="0 0 555 364" fill="none" xmlns="http://www.w3.org/2000/svg">
<g opacity="0.3" filter="url(#filter0_d_97_614)">
<rect x="120.574" y="57.6562" width="232" height="232" rx="116" fill="url(#paint0_linear_97_614)"/>
</g>
<path d="M5.4 88.6562C5.4 74.8962 8.04 64.0562 13.32 56.1362C18.68 48.2162 27.28 44.2562 39.12 44.2562C50.96 44.2562 59.52 48.2162 64.8 56.1362C70.16 64.0562 72.84 74.8962 72.84 88.6562C72.84 102.576 70.16 113.496 64.8 121.416C59.52 129.336 50.96 133.296 39.12 133.296C27.28 133.296 18.68 129.336 13.32 121.416C8.04 113.496 5.4 102.576 5.4 88.6562ZM52.68 88.6562C52.68 80.5762 51.8 74.3762 50.04 70.0562C48.28 65.6562 44.64 63.4562 39.12 63.4562C33.6 63.4562 29.96 65.6562 28.2 70.0562C26.44 74.3762 25.56 80.5762 25.56 88.6562C25.56 94.0962 25.88 98.6162 26.52 102.216C27.16 105.736 28.44 108.616 30.36 110.856C32.36 113.016 35.28 114.096 39.12 114.096C42.96 114.096 45.84 113.016 47.76 110.856C49.76 108.616 51.08 105.736 51.72 102.216C52.36 98.6162 52.68 94.0962 52.68 88.6562ZM80.5612 117.216C83.2812 115.056 84.5212 114.056 84.2812 114.216C92.1212 107.736 98.2812 102.416 102.761 98.2562C107.321 94.0962 111.161 89.7362 114.281 85.1762C117.401 80.6162 118.961 76.1762 118.961 71.8562C118.961 68.5762 118.201 66.0162 116.681 64.1762C115.161 62.3362 112.881 61.4162 109.841 61.4162C106.801 61.4162 104.401 62.5762 102.641 64.8962C100.961 67.1362 100.121 70.3362 100.121 74.4962H80.3212C80.4812 67.6962 81.9212 62.0162 84.6412 57.4562C87.4412 52.8962 91.0812 49.5362 95.5612 47.3762C100.121 45.2162 105.161 44.1362 110.681 44.1362C120.201 44.1362 127.361 46.5762 132.161 51.4562C137.041 56.3362 139.481 62.6962 139.481 70.5362C139.481 79.0962 136.561 87.0562 130.721 94.4162C124.881 101.696 117.441 108.816 108.401 115.776H140.801V132.456H80.5612V117.216Z" fill="#B3B3B3"/>
<g filter="url(#filter1_d_97_614)">
<rect x="190.907" y="54.3976" width="305" height="263" rx="20" transform="rotate(-4.4948 190.907 54.3976)" fill="white"/>
<path d="M223.277 116.01L223.606 120.197L229.229 119.755L229.437 122.411L223.815 122.853L224.163 127.28L230.503 126.781L230.717 129.509L221.027 130.27L219.713 113.546L229.403 112.784L229.617 115.512L223.277 116.01ZM231.897 122.699C231.792 121.36 231.961 120.15 232.406 119.072C232.867 117.993 233.53 117.138 234.395 116.509C235.277 115.878 236.284 115.518 237.416 115.428C238.405 115.351 239.282 115.482 240.047 115.823C240.828 116.163 241.466 116.619 241.96 117.19L241.811 115.3L245.185 115.034L246.227 128.29L242.853 128.555L242.701 126.617C242.319 127.273 241.762 127.838 241.029 128.313C240.311 128.771 239.457 129.038 238.468 129.116C237.351 129.204 236.308 128.997 235.338 128.496C234.383 127.993 233.594 127.244 232.97 126.25C232.361 125.239 232.003 124.055 231.897 122.699ZM242.332 121.927C242.269 121.114 242.054 120.432 241.69 119.883C241.325 119.318 240.859 118.905 240.293 118.645C239.726 118.369 239.131 118.255 238.509 118.304C237.887 118.353 237.324 118.549 236.822 118.894C236.319 119.238 235.924 119.719 235.635 120.335C235.361 120.934 235.256 121.633 235.318 122.43C235.381 123.228 235.596 123.917 235.962 124.498C236.344 125.062 236.81 125.483 237.362 125.761C237.929 126.037 238.516 126.151 239.122 126.104C239.744 126.055 240.314 125.857 240.833 125.512C241.35 125.15 241.746 124.67 242.019 124.07C242.292 123.455 242.396 122.741 242.332 121.927ZM251.489 116.609C251.865 115.874 252.38 115.279 253.035 114.827C253.705 114.373 254.487 114.111 255.38 114.04L255.657 117.558L254.771 117.627C253.719 117.71 252.941 118.02 252.437 118.557C251.95 119.093 251.754 119.975 251.851 121.203L252.37 127.807L249.02 128.07L247.978 114.815L251.328 114.552L251.489 116.609ZM264.503 113.323C266.082 113.199 267.398 113.601 268.45 114.53C269.501 115.442 270.096 116.792 270.237 118.578L270.848 126.354L267.498 126.617L266.923 119.296C266.84 118.243 266.513 117.458 265.943 116.942C265.372 116.409 264.631 116.178 263.722 116.249C262.797 116.322 262.086 116.667 261.589 117.284C261.106 117.883 260.906 118.71 260.989 119.762L261.564 127.084L258.215 127.347L257.173 114.092L260.522 113.829L260.652 115.48C261.054 114.87 261.585 114.379 262.246 114.006C262.921 113.616 263.674 113.388 264.503 113.323ZM284.029 114.749L281.708 114.932L282.534 125.435L279.136 125.703L278.311 115.199L276.803 115.317L276.587 112.566L278.094 112.447L278.042 111.777C277.914 110.151 278.282 108.918 279.147 108.079C280.012 107.241 281.38 106.772 283.25 106.674L283.472 109.497C282.657 109.545 282.101 109.725 281.805 110.037C281.508 110.349 281.39 110.88 281.448 111.63L281.492 112.18L283.813 111.998L284.029 114.749ZM289.016 113.659C289.392 112.924 289.907 112.329 290.561 111.877C291.232 111.423 292.014 111.161 292.907 111.09L293.183 114.608L292.298 114.677C291.245 114.76 290.467 115.07 289.964 115.607C289.476 116.143 289.281 117.025 289.377 118.253L289.896 124.857L286.547 125.12L285.505 111.865L288.854 111.602L289.016 113.659ZM301.644 124.15C300.368 124.25 299.198 124.061 298.133 123.583C297.067 123.089 296.198 122.347 295.527 121.357C294.871 120.365 294.49 119.191 294.383 117.835C294.277 116.48 294.478 115.26 294.986 114.177C295.511 113.092 296.27 112.23 297.263 111.591C298.254 110.935 299.388 110.557 300.664 110.457C301.94 110.356 303.119 110.552 304.201 111.045C305.282 111.522 306.158 112.256 306.83 113.246C307.517 114.235 307.914 115.408 308.021 116.763C308.128 118.119 307.911 119.34 307.37 120.426C306.845 121.51 306.079 122.381 305.072 123.038C304.079 123.678 302.936 124.048 301.644 124.15ZM301.415 121.231C302.021 121.183 302.576 120.995 303.08 120.667C303.598 120.321 303.994 119.84 304.266 119.225C304.539 118.61 304.642 117.88 304.576 117.034C304.477 115.774 304.066 114.835 303.343 114.218C302.635 113.584 301.803 113.304 300.846 113.379C299.889 113.455 299.11 113.861 298.51 114.598C297.925 115.318 297.682 116.308 297.781 117.568C297.88 118.828 298.267 119.777 298.943 120.414C299.634 121.034 300.458 121.306 301.415 121.231ZM325.925 108.495C327.552 108.367 328.899 108.767 329.967 109.694C331.05 110.604 331.661 111.952 331.802 113.738L332.413 121.514L329.063 121.778L328.488 114.456C328.406 113.42 328.081 112.651 327.512 112.15C326.942 111.633 326.202 111.41 325.293 111.482C324.384 111.553 323.68 111.889 323.181 112.49C322.698 113.074 322.497 113.884 322.578 114.921L323.154 122.242L319.804 122.506L319.228 115.184C319.147 114.147 318.822 113.379 318.253 112.878C317.682 112.361 316.943 112.138 316.034 112.209C315.108 112.282 314.397 112.619 313.898 113.22C313.414 113.804 313.213 114.614 313.295 115.651L313.87 122.972L310.521 123.235L309.479 109.98L312.828 109.717L312.954 111.32C313.341 110.728 313.857 110.246 314.502 109.874C315.163 109.501 315.9 109.283 316.713 109.219C317.75 109.137 318.693 109.288 319.541 109.671C320.389 110.037 321.068 110.61 321.578 111.388C321.949 110.589 322.523 109.926 323.3 109.399C324.093 108.872 324.968 108.57 325.925 108.495ZM342.294 102.923L343.686 120.628L340.336 120.892L338.944 103.186L342.294 102.923ZM347.049 105.438C346.459 105.484 345.95 105.34 345.522 105.004C345.11 104.652 344.881 104.196 344.837 103.638C344.793 103.079 344.948 102.602 345.302 102.205C345.671 101.791 346.15 101.56 346.741 101.514C347.331 101.468 347.832 101.621 348.245 101.974C348.673 102.309 348.909 102.756 348.953 103.314C348.996 103.873 348.834 104.359 348.465 104.773C348.111 105.17 347.639 105.392 347.049 105.438ZM348.824 106.887L349.866 120.142L346.516 120.406L345.474 107.151L348.824 106.887ZM360.545 119.303L355.603 114.01L356.047 119.657L352.697 119.92L351.305 102.215L354.655 101.951L355.447 112.024L359.455 106.052L363.81 105.709L358.494 112.82L364.899 118.961L360.545 119.303ZM377.97 110.976C378.007 111.454 378.009 111.888 377.975 112.275L368.285 113.037C368.44 113.988 368.834 114.711 369.467 115.207C370.1 115.703 370.847 115.917 371.708 115.849C372.952 115.752 373.796 115.148 374.238 114.038L377.851 113.754C377.568 115.06 376.917 116.17 375.898 117.085C374.877 117.984 373.577 118.495 371.998 118.619C370.722 118.72 369.552 118.531 368.487 118.053C367.437 117.557 366.584 116.814 365.928 115.822C365.289 114.829 364.915 113.655 364.809 112.299C364.701 110.928 364.885 109.701 365.362 108.621C365.839 107.54 366.558 106.681 367.519 106.044C368.48 105.406 369.614 105.036 370.922 104.934C372.182 104.834 373.328 105.017 374.36 105.482C375.407 105.945 376.242 106.658 376.863 107.62C377.499 108.565 377.868 109.684 377.97 110.976ZM374.425 110.291C374.341 109.431 373.976 108.77 373.33 108.307C372.683 107.828 371.92 107.624 371.043 107.693C370.213 107.758 369.532 108.068 368.998 108.624C368.478 109.162 368.19 109.883 368.132 110.786L374.425 110.291ZM385.569 117.552C384.484 117.638 383.496 117.523 382.605 117.208C381.712 116.877 380.984 116.396 380.421 115.766C379.874 115.135 379.544 114.415 379.433 113.605L382.806 113.34C382.91 113.845 383.191 114.249 383.648 114.55C384.121 114.85 384.684 114.974 385.338 114.922C385.976 114.872 386.46 114.706 386.791 114.423C387.138 114.139 387.296 113.798 387.264 113.399C387.231 112.968 386.982 112.667 386.519 112.494C386.071 112.305 385.358 112.12 384.381 111.94C383.374 111.779 382.541 111.595 381.883 111.39C381.24 111.184 380.667 110.836 380.163 110.346C379.675 109.855 379.396 109.162 379.326 108.269C379.268 107.535 379.423 106.849 379.79 106.21C380.173 105.57 380.742 105.044 381.496 104.632C382.266 104.218 383.185 103.97 384.254 103.886C385.833 103.761 387.124 104.061 388.128 104.785C389.131 105.492 389.732 106.512 389.933 107.845L386.727 108.097C386.638 107.574 386.382 107.177 385.96 106.905C385.552 106.616 385.021 106.497 384.367 106.549C383.761 106.596 383.299 106.745 382.981 106.995C382.68 107.243 382.545 107.567 382.576 107.966C382.611 108.412 382.862 108.738 383.327 108.942C383.791 109.13 384.503 109.307 385.463 109.472C386.439 109.636 387.248 109.821 387.89 110.027C388.532 110.234 389.098 110.59 389.587 111.098C390.091 111.588 390.386 112.271 390.471 113.147C390.531 113.912 390.369 114.615 389.986 115.255C389.619 115.894 389.051 116.42 388.281 116.834C387.526 117.23 386.622 117.47 385.569 117.552ZM400.23 93.3852L395.892 120.882L392.614 121.139L396.952 93.6429L400.23 93.3852ZM409.481 112.351L412.031 101.919L415.596 101.638L411.733 115.279L407.666 115.599L401.743 102.727L405.332 102.445L409.481 112.351ZM418.573 99.8154C417.983 99.8618 417.474 99.7172 417.047 99.3817C416.634 99.029 416.405 98.5735 416.362 98.0152C416.318 97.4569 416.473 96.9793 416.827 96.5824C417.195 96.1682 417.675 95.9379 418.265 95.8915C418.855 95.8451 419.357 95.9983 419.77 96.351C420.197 96.6865 420.433 97.1334 420.477 97.6917C420.521 98.25 420.358 98.7362 419.99 99.1504C419.636 99.5473 419.164 99.769 418.573 99.8154ZM420.348 101.265L421.39 114.52L418.041 114.783L416.999 101.528L420.348 101.265ZM436 106.414C436.037 106.893 436.039 107.326 436.006 107.714L426.316 108.475C426.471 109.426 426.865 110.149 427.497 110.645C428.13 111.141 428.877 111.355 429.739 111.288C430.983 111.19 431.826 110.586 432.268 109.476L435.881 109.192C435.599 110.498 434.948 111.608 433.928 112.523C432.908 113.422 431.608 113.933 430.029 114.057C428.752 114.158 427.582 113.969 426.517 113.491C425.467 112.996 424.614 112.252 423.959 111.261C423.319 110.268 422.946 109.093 422.839 107.737C422.731 106.366 422.916 105.139 423.393 104.059C423.869 102.978 424.588 102.119 425.549 101.482C426.51 100.845 427.645 100.475 428.953 100.372C430.213 100.273 431.359 100.455 432.39 100.92C433.438 101.383 434.272 102.096 434.893 103.058C435.53 104.003 435.898 105.122 436 106.414ZM432.455 105.73C432.372 104.87 432.007 104.208 431.36 103.745C430.713 103.267 429.951 103.062 429.073 103.131C428.244 103.196 427.562 103.506 427.028 104.062C426.509 104.6 426.22 105.321 426.163 106.224L432.455 105.73ZM455.843 98.4745L453.009 112.034L449.396 112.318L446.252 103.249L444.563 112.698L440.926 112.984L435.984 100.036L439.382 99.7685L442.52 109.681L444.263 99.3848L447.804 99.1065L451.084 108.984L452.637 98.7265L455.843 98.4745ZM463.308 111.441C462.224 111.527 461.236 111.412 460.344 111.097C459.451 110.766 458.724 110.285 458.161 109.655C457.613 109.024 457.284 108.304 457.172 107.494L460.546 107.229C460.65 107.734 460.93 108.138 461.387 108.439C461.86 108.739 462.424 108.863 463.078 108.811C463.716 108.761 464.2 108.595 464.531 108.312C464.878 108.028 465.035 107.686 465.004 107.288C464.97 106.857 464.722 106.556 464.259 106.383C463.811 106.194 463.098 106.009 462.121 105.829C461.113 105.668 460.28 105.484 459.622 105.279C458.98 105.073 458.407 104.725 457.903 104.235C457.415 103.744 457.136 103.051 457.066 102.158C457.008 101.424 457.163 100.738 457.53 100.099C457.913 99.4594 458.481 98.9332 459.235 98.5208C460.005 98.1072 460.925 97.8584 461.993 97.7744C463.572 97.6503 464.864 97.95 465.868 98.6735C466.87 99.3811 467.472 100.401 467.673 101.733L464.467 101.985C464.378 101.463 464.122 101.066 463.699 100.794C463.291 100.505 462.76 100.386 462.106 100.438C461.5 100.485 461.038 100.634 460.721 100.884C460.42 101.132 460.284 101.456 460.316 101.854C460.351 102.301 460.601 102.626 461.067 102.831C461.531 103.019 462.243 103.196 463.203 103.361C464.179 103.525 464.988 103.71 465.63 103.916C466.272 104.123 466.838 104.479 467.327 104.987C467.831 105.477 468.125 106.16 468.21 107.036C468.27 107.801 468.109 108.504 467.726 109.144C467.359 109.783 466.79 110.309 466.02 110.723C465.265 111.119 464.361 111.359 463.308 111.441Z" fill="#3B3939"/>
<rect x="221.884" y="162.302" width="20" height="20" rx="10" transform="rotate(-4.4948 221.884 162.302)" fill="url(#paint1_linear_97_614)"/>
<path fill-rule="evenodd" clip-rule="evenodd" d="M236.57 167.325L231.073 173.533L229.362 171.971C229.049 171.719 228.591 171.739 228.277 171.997C227.972 172.264 227.914 172.695 228.14 173.02L230.248 175.913C230.453 176.181 230.783 176.331 231.14 176.303C231.481 176.276 231.791 176.076 231.951 175.779C232.22 175.365 237.392 168.113 237.392 168.113C238.08 167.29 237.122 166.688 236.569 167.316L236.57 167.325Z" fill="white"/>
<path d="M252.886 176.917L251.746 162.417L256.646 162.031C257.784 161.942 258.73 162.074 259.484 162.428C260.243 162.777 260.824 163.284 261.228 163.951C261.632 164.617 261.868 165.378 261.935 166.232C262.002 167.086 261.888 167.877 261.594 168.603C261.304 169.328 260.815 169.927 260.125 170.399C259.435 170.867 258.526 171.145 257.398 171.234L253.886 171.51L253.764 169.952L257.219 169.68C257.998 169.619 258.613 169.436 259.063 169.129C259.514 168.823 259.828 168.433 260.004 167.958C260.185 167.479 260.253 166.948 260.207 166.368C260.161 165.787 260.012 165.277 259.759 164.836C259.511 164.395 259.138 164.063 258.641 163.841C258.143 163.614 257.5 163.532 256.712 163.593L253.625 163.836L254.642 176.779L252.886 176.917ZM269.037 175.876C268.055 175.953 267.175 175.787 266.398 175.378C265.624 174.968 264.997 174.36 264.516 173.552C264.039 172.744 263.757 171.779 263.668 170.655C263.579 169.522 263.707 168.517 264.051 167.64C264.4 166.763 264.924 166.061 265.624 165.536C266.328 165.01 267.171 164.709 268.153 164.632C269.135 164.555 270.012 164.721 270.786 165.13C271.563 165.539 272.191 166.15 272.668 166.963C273.15 167.775 273.435 168.748 273.524 169.88C273.612 171.004 273.482 172.002 273.133 172.875C272.788 173.747 272.264 174.446 271.559 174.972C270.86 175.497 270.019 175.798 269.037 175.876ZM268.919 174.375C269.665 174.316 270.263 174.076 270.715 173.656C271.166 173.236 271.483 172.705 271.665 172.064C271.848 171.423 271.91 170.739 271.853 170.012C271.796 169.285 271.627 168.617 271.347 168.007C271.066 167.397 270.67 166.918 270.158 166.569C269.646 166.22 269.017 166.074 268.271 166.133C267.525 166.192 266.927 166.433 266.476 166.858C266.025 167.283 265.708 167.819 265.526 168.465C265.344 169.111 265.282 169.797 265.339 170.524C265.396 171.251 265.565 171.917 265.845 172.522C266.126 173.127 266.521 173.601 267.033 173.946C267.545 174.29 268.173 174.433 268.919 174.375ZM282.94 166.063L281.472 166.606C281.358 166.363 281.2 166.131 280.997 165.909C280.799 165.682 280.538 165.503 280.214 165.372C279.89 165.241 279.485 165.194 278.999 165.233C278.333 165.285 277.791 165.482 277.371 165.824C276.956 166.16 276.767 166.562 276.804 167.03C276.836 167.445 277.013 167.761 277.334 167.978C277.655 168.195 278.143 168.359 278.797 168.469L280.443 168.738C281.434 168.898 282.187 169.202 282.702 169.651C283.216 170.095 283.504 170.697 283.563 171.457C283.612 172.08 283.477 172.651 283.157 173.17C282.841 173.689 282.376 174.115 281.761 174.448C281.146 174.781 280.416 174.981 279.571 175.048C278.462 175.135 277.525 174.966 276.76 174.542C275.995 174.117 275.48 173.45 275.213 172.54L276.768 172.019C276.965 172.593 277.285 173.009 277.729 173.269C278.176 173.528 278.743 173.631 279.427 173.577C280.206 173.516 280.811 173.302 281.243 172.936C281.679 172.564 281.879 172.145 281.842 171.677C281.813 171.3 281.656 170.994 281.371 170.76C281.087 170.521 280.665 170.359 280.108 170.275L278.262 169.993C277.247 169.835 276.487 169.526 275.981 169.068C275.479 168.604 275.198 167.996 275.139 167.246C275.091 166.632 275.221 166.076 275.528 165.577C275.84 165.077 276.286 164.669 276.864 164.353C277.447 164.037 278.121 163.848 278.885 163.788C279.962 163.704 280.825 163.873 281.476 164.297C282.131 164.72 282.619 165.309 282.94 166.063ZM289.593 163.089L289.705 164.505L284.069 164.948L283.957 163.532L289.593 163.089ZM285.395 160.797L287.066 160.666L287.881 171.032C287.918 171.504 288.015 171.852 288.17 172.078C288.33 172.298 288.521 172.439 288.745 172.503C288.973 172.561 289.209 172.58 289.455 172.561C289.639 172.546 289.789 172.525 289.906 172.497C290.022 172.464 290.115 172.438 290.184 172.418L290.642 173.892C290.532 173.944 290.377 173.999 290.178 174.057C289.979 174.12 289.723 174.164 289.412 174.188C288.94 174.226 288.469 174.16 288 173.993C287.536 173.825 287.138 173.545 286.808 173.153C286.483 172.761 286.295 172.249 286.246 171.616L285.395 160.797ZM298.53 166.746L299.044 173.289L297.373 173.42L296.518 162.545L298.133 162.418L298.266 164.117L298.408 164.106C298.619 163.534 298.972 163.059 299.465 162.683C299.957 162.303 300.614 162.08 301.435 162.016C302.172 161.958 302.828 162.058 303.404 162.317C303.979 162.571 304.445 162.99 304.799 163.575C305.154 164.155 305.367 164.908 305.44 165.833L305.983 172.743L304.312 172.875L303.778 166.077C303.711 165.223 303.437 164.575 302.955 164.133C302.474 163.686 301.846 163.494 301.072 163.554C300.538 163.596 300.071 163.75 299.669 164.014C299.272 164.278 298.97 164.641 298.764 165.104C298.558 165.566 298.48 166.114 298.53 166.746ZM312.874 172.43C311.893 172.507 311.013 172.341 310.235 171.932C309.462 171.522 308.835 170.914 308.353 170.106C307.876 169.298 307.594 168.333 307.506 167.209C307.417 166.076 307.544 165.071 307.888 164.194C308.237 163.316 308.762 162.615 309.461 162.09C310.166 161.564 311.009 161.263 311.991 161.186C312.972 161.109 313.85 161.275 314.623 161.684C315.401 162.093 316.028 162.704 316.505 163.517C316.987 164.329 317.273 165.302 317.362 166.434C317.45 167.558 317.319 168.556 316.97 169.429C316.625 170.301 316.101 171 315.397 171.526C314.697 172.051 313.856 172.352 312.874 172.43ZM312.756 170.928C313.502 170.87 314.101 170.63 314.552 170.21C315.004 169.79 315.321 169.259 315.503 168.618C315.685 167.977 315.748 167.293 315.691 166.566C315.633 165.839 315.465 165.171 315.184 164.561C314.903 163.951 314.507 163.472 313.995 163.123C313.483 162.774 312.854 162.628 312.109 162.687C311.363 162.745 310.764 162.987 310.313 163.412C309.862 163.837 309.546 164.373 309.364 165.018C309.182 165.664 309.119 166.351 309.177 167.078C309.234 167.805 309.402 168.471 309.683 169.076C309.963 169.68 310.359 170.155 310.87 170.5C311.382 170.844 312.011 170.987 312.756 170.928ZM319.737 171.662L318.882 160.787L320.497 160.66L320.626 162.302L320.739 162.293C320.895 161.74 321.219 161.275 321.712 160.899C322.205 160.523 322.777 160.309 323.429 160.258C323.551 160.248 323.705 160.239 323.889 160.229C324.074 160.219 324.214 160.215 324.309 160.217L324.442 161.917C324.385 161.907 324.253 161.896 324.048 161.884C323.847 161.866 323.636 161.866 323.414 161.884C322.885 161.925 322.422 162.073 322.024 162.328C321.63 162.577 321.329 162.905 321.118 163.311C320.912 163.712 320.829 164.158 320.867 164.649L321.408 171.531L319.737 171.662ZM326.558 171.126L325.703 160.25L327.317 160.123L327.451 161.823L327.592 161.812C327.773 161.213 328.103 160.734 328.583 160.373C329.063 160.008 329.657 159.797 330.365 159.741C331.082 159.685 331.692 159.801 332.194 160.089C332.701 160.372 333.112 160.794 333.426 161.353L333.54 161.344C333.774 160.76 334.157 160.282 334.688 159.907C335.218 159.528 335.873 159.308 336.652 159.247C337.624 159.171 338.444 159.413 339.11 159.973C339.776 160.529 340.159 161.446 340.259 162.725L340.832 170.004L339.161 170.135L338.589 162.856C338.525 162.054 338.261 161.498 337.795 161.188C337.329 160.878 336.798 160.746 336.204 160.793C335.439 160.853 334.865 161.131 334.481 161.626C334.097 162.117 333.932 162.714 333.988 163.418L334.544 170.498L332.845 170.632L332.259 163.183C332.211 162.565 331.971 162.082 331.54 161.736C331.109 161.386 330.577 161.235 329.944 161.285C329.51 161.319 329.113 161.466 328.754 161.727C328.399 161.988 328.122 162.333 327.923 162.762C327.729 163.185 327.652 163.664 327.694 164.197L328.229 170.995L326.558 171.126ZM346.509 169.814C345.82 169.868 345.184 169.788 344.602 169.572C344.02 169.352 343.544 169.007 343.174 168.537C342.805 168.063 342.592 167.472 342.536 166.764C342.487 166.141 342.57 165.626 342.785 165.22C343 164.808 343.304 164.476 343.697 164.222C344.09 163.968 344.531 163.767 345.018 163.619C345.509 163.467 346.005 163.337 346.505 163.232C347.159 163.095 347.69 162.989 348.097 162.914C348.509 162.834 348.804 162.733 348.985 162.609C349.17 162.485 349.252 162.289 349.231 162.02L349.226 161.963C349.171 161.265 348.937 160.737 348.525 160.38C348.117 160.022 347.528 159.874 346.758 159.935C345.961 159.997 345.349 160.221 344.923 160.606C344.498 160.991 344.208 161.389 344.055 161.8L342.425 161.358C342.656 160.675 342.993 160.131 343.436 159.725C343.884 159.315 344.383 159.015 344.933 158.824C345.487 158.629 346.038 158.509 346.586 158.466C346.935 158.439 347.34 158.45 347.8 158.499C348.264 158.543 348.718 158.676 349.163 158.898C349.613 159.119 349.999 159.476 350.323 159.968C350.647 160.46 350.843 161.138 350.91 162.002L351.474 169.167L349.803 169.299L349.687 167.826L349.602 167.833C349.507 168.077 349.338 168.345 349.095 168.635C348.852 168.925 348.518 169.181 348.094 169.404C347.67 169.628 347.142 169.764 346.509 169.814ZM346.646 168.293C347.307 168.241 347.854 168.067 348.286 167.772C348.724 167.476 349.042 167.114 349.241 166.685C349.445 166.256 349.529 165.815 349.493 165.362L349.373 163.833C349.309 163.923 349.159 164.013 348.924 164.103C348.693 164.188 348.424 164.268 348.117 164.344C347.814 164.416 347.517 164.482 347.227 164.543C346.942 164.598 346.711 164.645 346.533 164.683C346.103 164.773 345.705 164.897 345.337 165.055C344.974 165.207 344.686 165.417 344.475 165.685C344.267 165.948 344.181 166.292 344.214 166.717C344.26 167.298 344.509 167.72 344.962 167.984C345.419 168.242 345.98 168.345 346.646 168.293ZM354.457 154.342L355.596 168.843L353.925 168.975L352.786 154.474L354.457 154.342ZM367.504 168.135C366.485 168.215 365.588 168.043 364.814 167.62C364.039 167.196 363.421 166.578 362.958 165.764C362.495 164.95 362.221 164 362.136 162.915C362.049 161.81 362.175 160.819 362.515 159.943C362.858 159.061 363.377 158.353 364.072 157.818C364.77 157.279 365.61 156.971 366.592 156.894C367.357 156.833 368.057 156.921 368.693 157.156C369.329 157.391 369.863 157.748 370.295 158.227C370.727 158.706 371.016 159.281 371.164 159.954L369.493 160.085C369.327 159.599 369.009 159.183 368.54 158.835C368.075 158.482 367.475 158.334 366.738 158.392C366.087 158.444 365.529 158.658 365.065 159.037C364.605 159.41 364.263 159.914 364.037 160.55C363.816 161.18 363.737 161.905 363.802 162.727C363.868 163.567 364.058 164.288 364.371 164.89C364.689 165.492 365.105 165.947 365.618 166.253C366.136 166.559 366.726 166.686 367.386 166.634C367.821 166.6 368.209 166.493 368.551 166.314C368.893 166.136 369.176 165.895 369.399 165.592C369.622 165.29 369.77 164.936 369.843 164.532L371.514 164.4C371.47 165.05 371.282 165.646 370.949 166.19C370.621 166.729 370.164 167.173 369.579 167.523C368.998 167.868 368.307 168.072 367.504 168.135ZM378.044 167.307C377.062 167.384 376.182 167.218 375.404 166.809C374.631 166.399 374.004 165.791 373.522 164.983C373.046 164.175 372.763 163.21 372.675 162.086C372.586 160.953 372.713 159.948 373.058 159.071C373.407 158.194 373.931 157.492 374.631 156.967C375.335 156.441 376.178 156.14 377.16 156.063C378.142 155.986 379.019 156.152 379.792 156.561C380.57 156.97 381.197 157.581 381.675 158.394C382.156 159.206 382.442 160.179 382.531 161.311C382.619 162.435 382.489 163.433 382.139 164.306C381.795 165.178 381.27 165.877 380.566 166.403C379.866 166.928 379.026 167.229 378.044 167.307ZM377.926 165.805C378.672 165.747 379.27 165.507 379.722 165.087C380.173 164.667 380.49 164.136 380.672 163.495C380.854 162.854 380.917 162.17 380.86 161.443C380.803 160.716 380.634 160.048 380.353 159.438C380.073 158.828 379.676 158.349 379.164 158C378.652 157.651 378.024 157.505 377.278 157.564C376.532 157.622 375.934 157.864 375.483 158.289C375.032 158.714 374.715 159.25 374.533 159.896C374.351 160.541 374.289 161.228 374.346 161.955C374.403 162.682 374.572 163.348 374.852 163.953C375.132 164.557 375.528 165.032 376.04 165.377C376.551 165.721 377.18 165.864 377.926 165.805ZM386.063 159.865L386.577 166.408L384.906 166.539L384.052 155.664L385.666 155.537L385.799 157.236L385.941 157.225C386.153 156.652 386.505 156.178 386.998 155.802C387.49 155.422 388.147 155.199 388.968 155.135C389.705 155.077 390.361 155.177 390.937 155.436C391.513 155.69 391.978 156.109 392.332 156.694C392.687 157.274 392.9 158.027 392.973 158.952L393.516 165.862L391.845 165.994L391.311 159.196C391.244 158.342 390.97 157.694 390.488 157.252C390.007 156.805 389.379 156.613 388.605 156.673C388.071 156.715 387.604 156.868 387.202 157.133C386.805 157.397 386.503 157.76 386.297 158.223C386.091 158.685 386.013 159.233 386.063 159.865ZM399.846 154.422L399.958 155.838L394.322 156.281L394.21 154.865L399.846 154.422ZM395.648 152.13L397.319 151.999L398.134 162.365C398.171 162.837 398.267 163.185 398.423 163.411C398.583 163.631 398.774 163.772 398.998 163.836C399.225 163.894 399.462 163.913 399.707 163.894C399.892 163.879 400.042 163.858 400.158 163.83C400.275 163.797 400.367 163.771 400.437 163.751L400.895 165.225C400.785 165.277 400.63 165.332 400.431 165.39C400.231 165.453 399.976 165.497 399.664 165.521C399.192 165.559 398.722 165.493 398.253 165.326C397.788 165.158 397.391 164.878 397.061 164.486C396.736 164.094 396.548 163.582 396.499 162.949L395.648 152.13ZM407.077 165.024C406.03 165.107 405.107 164.946 404.311 164.543C403.519 164.136 402.885 163.53 402.409 162.727C401.937 161.918 401.657 160.957 401.569 159.843C401.482 158.729 401.607 157.732 401.947 156.85C402.29 155.963 402.809 155.253 403.503 154.719C404.202 154.179 405.042 153.871 406.024 153.794C406.59 153.749 407.157 153.8 407.724 153.945C408.291 154.091 408.818 154.358 409.304 154.747C409.791 155.132 410.195 155.66 410.519 156.333C410.843 157.006 411.044 157.849 411.124 158.864L411.18 159.572L402.797 160.231L402.683 158.787L409.367 158.261C409.319 157.648 409.153 157.11 408.87 156.648C408.591 156.185 408.217 155.832 407.746 155.589C407.281 155.345 406.746 155.247 406.142 155.295C405.476 155.347 404.913 155.558 404.453 155.926C403.997 156.29 403.66 156.744 403.442 157.288C403.223 157.833 403.137 158.404 403.185 159.004L403.26 159.967C403.325 160.788 403.521 161.473 403.849 162.022C404.182 162.566 404.615 162.967 405.148 163.224C405.681 163.476 406.284 163.576 406.959 163.523C407.398 163.489 407.79 163.396 408.134 163.246C408.483 163.09 408.778 162.877 409.017 162.606C409.257 162.331 409.433 161.999 409.545 161.61L411.195 161.936C411.068 162.497 410.82 163.001 410.451 163.448C410.083 163.89 409.612 164.25 409.04 164.528C408.468 164.801 407.814 164.966 407.077 165.024ZM414.663 157.617L415.177 164.159L413.506 164.291L412.652 153.415L414.266 153.288L414.399 154.988L414.541 154.977C414.753 154.404 415.105 153.93 415.598 153.554C416.09 153.173 416.747 152.951 417.568 152.886C418.305 152.828 418.961 152.929 419.537 153.187C420.113 153.441 420.578 153.861 420.932 154.446C421.287 155.026 421.5 155.778 421.573 156.704L422.116 163.614L420.445 163.745L419.911 156.948C419.844 156.094 419.57 155.446 419.088 155.004C418.607 154.557 417.979 154.364 417.205 154.425C416.672 154.467 416.204 154.62 415.802 154.885C415.405 155.149 415.103 155.512 414.897 155.974C414.692 156.437 414.613 156.985 414.663 157.617ZM428.446 152.174L428.558 153.59L422.922 154.033L422.81 152.617L428.446 152.174ZM424.248 149.882L425.919 149.751L426.734 160.116C426.771 160.588 426.867 160.937 427.023 161.162C427.183 161.382 427.374 161.524 427.598 161.587C427.825 161.645 428.062 161.665 428.308 161.645C428.492 161.631 428.642 161.61 428.758 161.582C428.875 161.549 428.968 161.522 429.037 161.503L429.495 162.977C429.385 163.028 429.23 163.083 429.031 163.142C428.831 163.205 428.576 163.249 428.265 163.273C427.792 163.31 427.322 163.245 426.853 163.078C426.388 162.91 425.991 162.63 425.661 162.238C425.336 161.846 425.148 161.333 425.099 160.701L424.248 149.882Z" fill="#515151"/>
<rect x="224.862" y="200.185" width="20" height="20" rx="10" transform="rotate(-4.4948 224.862 200.185)" fill="url(#paint2_linear_97_614)"/>
<path fill-rule="evenodd" clip-rule="evenodd" d="M239.548 205.208L234.051 211.416L232.34 209.854C232.028 209.602 231.569 209.622 231.255 209.88C230.95 210.147 230.892 210.578 231.118 210.903L233.227 213.796C233.432 214.064 233.761 214.214 234.118 214.186C234.459 214.159 234.769 213.959 234.93 213.662C235.198 213.248 240.371 205.996 240.371 205.996C241.058 205.173 240.1 204.571 239.547 205.2L239.548 205.208Z" fill="white"/>
<path d="M266.223 199.396L267.363 213.896L265.664 214.03L256.867 203.266L256.725 203.277L257.62 214.662L255.864 214.8L254.724 200.3L256.424 200.166L265.251 210.956L265.393 210.945L264.495 199.531L266.223 199.396ZM274.488 213.564C273.506 213.641 272.626 213.476 271.848 213.066C271.075 212.657 270.448 212.049 269.967 211.241C269.49 210.433 269.207 209.467 269.119 208.344C269.03 207.211 269.158 206.206 269.502 205.329C269.851 204.451 270.375 203.75 271.075 203.225C271.779 202.699 272.622 202.398 273.604 202.321C274.586 202.243 275.463 202.409 276.236 202.819C277.014 203.228 277.642 203.839 278.119 204.651C278.601 205.464 278.886 206.436 278.975 207.569C279.063 208.693 278.933 209.691 278.584 210.564C278.239 211.436 277.714 212.135 277.01 212.661C276.31 213.186 275.47 213.487 274.488 213.564ZM274.37 212.063C275.116 212.005 275.714 211.765 276.166 211.345C276.617 210.925 276.934 210.394 277.116 209.753C277.299 209.112 277.361 208.427 277.304 207.701C277.247 206.974 277.078 206.305 276.797 205.696C276.517 205.086 276.12 204.607 275.609 204.257C275.097 203.908 274.468 203.763 273.722 203.822C272.976 203.88 272.378 204.122 271.927 204.547C271.476 204.972 271.159 205.507 270.977 206.153C270.795 206.799 270.733 207.486 270.79 208.213C270.847 208.94 271.016 209.605 271.296 210.21C271.576 210.815 271.972 211.29 272.484 211.634C272.995 211.979 273.624 212.122 274.37 212.063ZM293.4 203.358L291.933 203.9C291.818 203.658 291.66 203.425 291.457 203.204C291.259 202.977 290.998 202.798 290.674 202.667C290.351 202.536 289.946 202.489 289.459 202.527C288.794 202.58 288.251 202.777 287.832 203.118C287.416 203.455 287.227 203.857 287.264 204.324C287.297 204.74 287.473 205.056 287.794 205.273C288.115 205.49 288.603 205.653 289.258 205.763L290.903 206.033C291.894 206.193 292.647 206.497 293.162 206.945C293.677 207.389 293.964 207.991 294.024 208.751C294.073 209.374 293.937 209.946 293.617 210.465C293.302 210.983 292.836 211.409 292.221 211.743C291.606 212.076 290.876 212.276 290.031 212.342C288.922 212.43 287.985 212.261 287.22 211.837C286.456 211.412 285.94 210.745 285.674 209.835L287.229 209.314C287.426 209.888 287.746 210.304 288.189 210.564C288.637 210.823 289.203 210.926 289.887 210.872C290.666 210.811 291.272 210.597 291.703 210.23C292.14 209.859 292.339 209.439 292.303 208.972C292.273 208.595 292.116 208.289 291.832 208.055C291.547 207.816 291.126 207.654 290.568 207.57L288.722 207.287C287.708 207.13 286.947 206.821 286.441 206.362C285.939 205.898 285.659 205.291 285.6 204.541C285.551 203.927 285.681 203.371 285.988 202.872C286.301 202.372 286.746 201.964 287.324 201.648C287.907 201.332 288.581 201.143 289.346 201.083C290.422 200.998 291.286 201.168 291.936 201.592C292.592 202.015 293.08 202.604 293.4 203.358ZM296.5 215.709L295.324 200.756L296.939 200.629L297.074 202.356L297.273 202.341C297.38 202.142 297.531 201.888 297.726 201.578C297.924 201.264 298.22 200.974 298.612 200.711C299.009 200.442 299.561 200.28 300.269 200.224C301.185 200.152 302.01 200.318 302.745 200.721C303.479 201.124 304.076 201.73 304.533 202.539C304.991 203.349 305.265 204.325 305.355 205.467C305.445 206.619 305.328 207.632 305.003 208.508C304.677 209.379 304.185 210.073 303.528 210.59C302.87 211.103 302.088 211.395 301.182 211.466C300.483 211.521 299.914 211.449 299.476 211.251C299.038 211.048 298.693 210.807 298.443 210.527C298.193 210.243 297.999 210.006 297.86 209.818L297.719 209.829L298.171 215.578L296.5 215.709ZM297.394 206.064C297.459 206.886 297.636 207.601 297.926 208.21C298.216 208.814 298.606 209.275 299.096 209.592C299.587 209.905 300.167 210.035 300.837 209.983C301.536 209.928 302.104 209.698 302.542 209.293C302.985 208.883 303.3 208.355 303.486 207.708C303.677 207.057 303.743 206.344 303.682 205.57C303.622 204.805 303.449 204.125 303.165 203.53C302.885 202.93 302.495 202.469 301.995 202.148C301.499 201.821 300.897 201.685 300.189 201.741C299.509 201.794 298.952 202.012 298.516 202.393C298.08 202.769 297.769 203.273 297.581 203.905C297.393 204.533 297.33 205.252 297.394 206.064ZM312.167 210.602C311.185 210.679 310.305 210.514 309.527 210.104C308.754 209.695 308.127 209.087 307.646 208.279C307.169 207.471 306.886 206.505 306.798 205.382C306.709 204.249 306.837 203.244 307.181 202.367C307.53 201.489 308.054 200.788 308.754 200.263C309.458 199.737 310.301 199.436 311.283 199.359C312.265 199.281 313.142 199.448 313.915 199.857C314.693 200.266 315.321 200.877 315.798 201.689C316.28 202.502 316.565 203.474 316.654 204.607C316.742 205.731 316.612 206.729 316.263 207.602C315.918 208.474 315.393 209.173 314.689 209.699C313.989 210.224 313.149 210.525 312.167 210.602ZM312.049 209.101C312.795 209.043 313.393 208.803 313.845 208.383C314.296 207.963 314.613 207.432 314.795 206.791C314.978 206.15 315.04 205.465 314.983 204.739C314.926 204.012 314.757 203.343 314.476 202.734C314.196 202.124 313.8 201.645 313.288 201.295C312.776 200.946 312.147 200.801 311.401 200.86C310.655 200.918 310.057 201.16 309.606 201.585C309.155 202.01 308.838 202.545 308.656 203.191C308.474 203.837 308.412 204.524 308.469 205.251C308.526 205.978 308.695 206.643 308.975 207.248C309.256 207.853 309.651 208.328 310.163 208.672C310.674 209.017 311.303 209.16 312.049 209.101ZM320.186 203.161L320.701 209.703L319.03 209.835L318.175 198.959L319.789 198.832L319.923 200.532L320.064 200.521C320.276 199.948 320.628 199.474 321.121 199.098C321.613 198.717 322.27 198.495 323.092 198.43C323.828 198.372 324.484 198.473 325.06 198.731C325.636 198.985 326.101 199.405 326.456 199.99C326.81 200.57 327.024 201.322 327.096 202.248L327.639 209.158L325.969 209.289L325.434 202.492C325.367 201.638 325.093 200.99 324.612 200.548C324.13 200.101 323.502 199.908 322.728 199.969C322.195 200.011 321.727 200.164 321.325 200.429C320.928 200.693 320.626 201.056 320.421 201.518C320.215 201.981 320.137 202.529 320.186 203.161ZM337.135 199.92L335.667 200.462C335.553 200.22 335.395 199.987 335.192 199.766C334.994 199.539 334.733 199.36 334.409 199.229C334.085 199.098 333.68 199.051 333.194 199.089C332.528 199.142 331.986 199.339 331.566 199.681C331.151 200.017 330.962 200.419 330.999 200.886C331.031 201.302 331.208 201.618 331.529 201.835C331.85 202.052 332.338 202.215 332.992 202.325L334.638 202.595C335.629 202.755 336.382 203.059 336.897 203.507C337.411 203.951 337.699 204.553 337.758 205.313C337.807 205.936 337.672 206.508 337.352 207.027C337.036 207.545 336.571 207.971 335.956 208.305C335.341 208.638 334.611 208.838 333.766 208.904C332.657 208.992 331.72 208.823 330.955 208.399C330.19 207.974 329.675 207.307 329.408 206.397L330.963 205.876C331.16 206.45 331.48 206.866 331.924 207.126C332.371 207.385 332.938 207.488 333.622 207.434C334.401 207.373 335.006 207.159 335.438 206.792C335.874 206.421 336.074 206.002 336.037 205.534C336.008 205.157 335.851 204.851 335.566 204.617C335.282 204.378 334.86 204.216 334.303 204.132L332.457 203.849C331.442 203.692 330.682 203.383 330.176 202.924C329.674 202.46 329.393 201.853 329.334 201.103C329.286 200.489 329.416 199.933 329.723 199.434C330.035 198.934 330.481 198.526 331.059 198.21C331.642 197.894 332.316 197.705 333.08 197.645C334.157 197.56 335.02 197.73 335.671 198.154C336.326 198.577 336.814 199.166 337.135 199.92ZM344.35 208.072C343.368 208.15 342.488 207.984 341.71 207.575C340.937 207.165 340.31 206.557 339.828 205.749C339.352 204.941 339.069 203.976 338.981 202.852C338.892 201.719 339.019 200.714 339.364 199.837C339.713 198.959 340.237 198.258 340.937 197.733C341.641 197.207 342.484 196.906 343.466 196.829C344.448 196.751 345.325 196.918 346.098 197.327C346.876 197.736 347.503 198.347 347.981 199.16C348.462 199.972 348.748 200.944 348.837 202.077C348.925 203.201 348.795 204.199 348.445 205.072C348.101 205.944 347.576 206.643 346.872 207.169C346.172 207.694 345.332 207.995 344.35 208.072ZM344.232 206.571C344.978 206.513 345.576 206.273 346.028 205.853C346.479 205.433 346.796 204.902 346.978 204.261C347.16 203.62 347.223 202.936 347.166 202.209C347.109 201.482 346.94 200.813 346.659 200.204C346.379 199.594 345.982 199.115 345.47 198.766C344.958 198.416 344.33 198.271 343.584 198.33C342.838 198.388 342.24 198.63 341.789 199.055C341.338 199.48 341.021 200.015 340.839 200.661C340.657 201.307 340.595 201.994 340.652 202.721C340.709 203.448 340.878 204.114 341.158 204.718C341.438 205.323 341.834 205.798 342.346 206.143C342.857 206.487 343.486 206.63 344.232 206.571ZM351.212 207.305L350.358 196.429L351.972 196.302L352.101 197.945L352.214 197.936C352.37 197.383 352.695 196.918 353.188 196.542C353.68 196.166 354.253 195.952 354.904 195.901C355.027 195.891 355.18 195.882 355.365 195.872C355.549 195.862 355.689 195.858 355.784 195.86L355.918 197.56C355.86 197.55 355.728 197.539 355.523 197.527C355.322 197.509 355.111 197.509 354.889 197.526C354.361 197.568 353.897 197.716 353.499 197.971C353.106 198.22 352.804 198.548 352.593 198.954C352.388 199.355 352.304 199.8 352.342 200.291L352.883 207.174L351.212 207.305ZM365.073 197.723L363.605 198.266C363.491 198.023 363.333 197.791 363.13 197.57C362.932 197.343 362.671 197.164 362.347 197.033C362.023 196.902 361.618 196.855 361.132 196.893C360.466 196.946 359.924 197.143 359.504 197.484C359.089 197.821 358.9 198.223 358.937 198.69C358.969 199.106 359.146 199.422 359.467 199.639C359.788 199.856 360.276 200.019 360.93 200.129L362.576 200.399C363.567 200.558 364.32 200.863 364.835 201.311C365.349 201.755 365.637 202.357 365.696 203.117C365.745 203.74 365.61 204.311 365.29 204.83C364.974 205.349 364.509 205.775 363.894 206.109C363.279 206.442 362.549 206.642 361.704 206.708C360.595 206.795 359.658 206.627 358.893 206.202C358.128 205.778 357.613 205.111 357.347 204.201L358.901 203.68C359.098 204.253 359.419 204.67 359.862 204.929C360.309 205.189 360.876 205.291 361.56 205.238C362.339 205.176 362.944 204.963 363.376 204.596C363.812 204.225 364.012 203.805 363.975 203.338C363.946 202.96 363.789 202.654 363.504 202.42C363.22 202.182 362.798 202.02 362.241 201.936L360.395 201.653C359.38 201.495 358.62 201.187 358.114 200.728C357.612 200.264 357.331 199.657 357.272 198.906C357.224 198.293 357.354 197.736 357.661 197.237C357.973 196.738 358.419 196.33 358.997 196.014C359.58 195.697 360.254 195.509 361.018 195.449C362.095 195.364 362.958 195.534 363.609 195.958C364.264 196.381 364.752 196.97 365.073 197.723ZM369.008 199.323L369.523 205.866L367.852 205.997L366.712 191.496L368.383 191.365L368.801 196.689L368.943 196.678C369.154 196.096 369.501 195.62 369.985 195.25C370.473 194.874 371.144 194.653 371.999 194.586C372.74 194.527 373.4 194.625 373.981 194.879C374.561 195.128 375.028 195.544 375.383 196.129C375.742 196.709 375.958 197.466 376.032 198.401L376.575 205.311L374.904 205.443L374.37 198.645C374.302 197.782 374.025 197.131 373.539 196.694C373.058 196.253 372.423 196.063 371.635 196.125C371.088 196.168 370.606 196.322 370.19 196.587C369.778 196.852 369.465 197.217 369.25 197.68C369.039 198.143 368.959 198.691 369.008 199.323ZM379.034 205.118L378.179 194.242L379.85 194.111L380.705 204.987L379.034 205.118ZM378.886 192.363C378.56 192.389 378.271 192.3 378.017 192.096C377.768 191.893 377.632 191.635 377.607 191.324C377.583 191.012 377.678 190.736 377.891 190.496C378.11 190.256 378.382 190.123 378.708 190.097C379.033 190.072 379.321 190.161 379.569 190.364C379.823 190.568 379.962 190.825 379.986 191.137C380.011 191.448 379.914 191.724 379.695 191.965C379.481 192.205 379.212 192.337 378.886 192.363ZM383.488 208.871L382.312 193.917L383.926 193.791L384.062 195.518L384.26 195.503C384.368 195.304 384.519 195.05 384.713 194.74C384.912 194.425 385.207 194.136 385.6 193.873C385.997 193.604 386.549 193.442 387.257 193.386C388.173 193.314 388.998 193.48 389.733 193.883C390.467 194.286 391.064 194.892 391.521 195.701C391.979 196.511 392.253 197.486 392.343 198.629C392.433 199.781 392.316 200.794 391.991 201.67C391.665 202.541 391.173 203.235 390.516 203.752C389.858 204.265 389.076 204.556 388.169 204.628C387.471 204.683 386.902 204.611 386.464 204.413C386.025 204.21 385.681 203.968 385.431 203.689C385.181 203.405 384.987 203.168 384.848 202.98L384.707 202.991L385.159 208.74L383.488 208.871ZM384.382 199.226C384.447 200.047 384.624 200.763 384.914 201.371C385.204 201.976 385.594 202.436 386.084 202.754C386.574 203.067 387.155 203.197 387.825 203.144C388.523 203.09 389.092 202.86 389.53 202.455C389.973 202.045 390.288 201.517 390.474 200.87C390.665 200.219 390.73 199.506 390.67 198.732C390.609 197.967 390.437 197.287 390.153 196.692C389.873 196.092 389.483 195.631 388.983 195.309C388.487 194.983 387.885 194.847 387.177 194.903C386.497 194.956 385.94 195.173 385.504 195.554C385.068 195.931 384.756 196.435 384.569 197.067C384.381 197.695 384.318 198.414 384.382 199.226ZM403.603 192.244L403.715 193.66L398.078 194.103L397.967 192.687L403.603 192.244ZM399.405 189.952L401.076 189.821L401.891 200.186C401.928 200.658 402.024 201.007 402.18 201.232C402.339 201.453 402.531 201.594 402.755 201.657C402.982 201.715 403.219 201.735 403.464 201.716C403.648 201.701 403.799 201.68 403.915 201.652C404.031 201.619 404.124 201.592 404.194 201.573L404.652 203.047C404.542 203.098 404.387 203.153 404.188 203.212C403.988 203.275 403.733 203.319 403.421 203.343C402.949 203.38 402.479 203.315 402.01 203.148C401.545 202.98 401.148 202.7 400.818 202.308C400.493 201.916 400.305 201.403 400.255 200.771L399.405 189.952ZM409.594 202.972C408.905 203.026 408.269 202.946 407.687 202.73C407.104 202.51 406.629 202.165 406.259 201.695C405.889 201.221 405.677 200.63 405.621 199.922C405.572 199.299 405.655 198.784 405.87 198.378C406.085 197.966 406.389 197.634 406.782 197.38C407.175 197.126 407.615 196.925 408.102 196.777C408.594 196.625 409.09 196.495 409.589 196.39C410.244 196.253 410.774 196.147 411.182 196.072C411.593 195.992 411.889 195.891 412.07 195.767C412.255 195.643 412.336 195.447 412.315 195.178L412.311 195.121C412.256 194.423 412.022 193.895 411.609 193.538C411.201 193.181 410.613 193.032 409.843 193.093C409.045 193.155 408.434 193.379 408.008 193.764C407.582 194.149 407.293 194.547 407.14 194.958L405.51 194.516C405.741 193.833 406.078 193.289 406.521 192.884C406.969 192.473 407.467 192.173 408.018 191.982C408.572 191.787 409.123 191.667 409.671 191.624C410.02 191.597 410.425 191.608 410.884 191.657C411.349 191.701 411.803 191.834 412.248 192.056C412.698 192.277 413.084 192.634 413.408 193.126C413.732 193.618 413.927 194.296 413.995 195.16L414.558 202.325L412.888 202.457L412.772 200.984L412.687 200.991C412.592 201.236 412.423 201.503 412.18 201.793C411.937 202.083 411.603 202.339 411.179 202.562C410.755 202.786 410.226 202.922 409.594 202.972ZM409.731 201.451C410.392 201.399 410.938 201.225 411.371 200.93C411.809 200.635 412.127 200.272 412.326 199.843C412.53 199.414 412.614 198.973 412.578 198.52L412.458 196.991C412.394 197.081 412.244 197.171 412.009 197.261C411.778 197.346 411.509 197.426 411.201 197.503C410.898 197.574 410.602 197.64 410.312 197.701C410.027 197.756 409.795 197.803 409.618 197.841C409.188 197.931 408.789 198.055 408.422 198.213C408.059 198.365 407.771 198.575 407.56 198.843C407.352 199.106 407.265 199.45 407.299 199.875C407.344 200.456 407.594 200.878 408.047 201.142C408.504 201.4 409.065 201.503 409.731 201.451ZM421.739 206.092C420.931 206.156 420.229 206.107 419.632 205.944C419.036 205.787 418.531 205.556 418.117 205.251C417.709 204.951 417.377 204.621 417.121 204.261L418.378 203.222C418.545 203.408 418.754 203.62 419.005 203.857C419.257 204.098 419.591 204.297 420.007 204.455C420.428 204.616 420.967 204.671 421.623 204.62C422.501 204.551 423.209 204.281 423.746 203.812C424.284 203.342 424.517 202.654 424.446 201.747L424.272 199.538L424.131 199.55C424.024 199.757 423.868 200.017 423.665 200.327C423.466 200.632 423.165 200.915 422.763 201.175C422.365 201.429 421.812 201.584 421.104 201.64C420.226 201.709 419.421 201.563 418.69 201.203C417.963 200.842 417.366 200.281 416.897 199.52C416.434 198.758 416.158 197.811 416.069 196.678C415.981 195.564 416.101 194.579 416.427 193.722C416.754 192.86 417.249 192.176 417.912 191.668C418.574 191.155 419.363 190.862 420.279 190.79C420.987 190.735 421.558 190.809 421.992 191.012C422.43 191.21 422.772 191.449 423.017 191.729C423.267 192.004 423.461 192.231 423.598 192.41L423.768 192.397L423.632 190.669L425.247 190.542L426.126 201.729C426.199 202.664 426.047 203.441 425.668 204.059C425.294 204.682 424.762 205.159 424.071 205.489C423.384 205.823 422.607 206.024 421.739 206.092ZM421.212 200.121C421.882 200.068 422.437 199.87 422.875 199.527C423.314 199.184 423.631 198.715 423.826 198.12C424.022 197.525 424.088 196.827 424.025 196.024C423.963 195.241 423.791 194.558 423.508 193.978C423.224 193.397 422.838 192.954 422.349 192.651C421.86 192.347 421.275 192.222 420.595 192.276C419.887 192.331 419.311 192.557 418.868 192.953C418.428 193.349 418.115 193.858 417.926 194.48C417.742 195.103 417.679 195.782 417.737 196.519C417.797 197.274 417.967 197.932 418.249 198.494C418.535 199.051 418.924 199.477 419.418 199.77C419.915 200.059 420.513 200.176 421.212 200.121ZM433.29 205.184C432.483 205.248 431.781 205.198 431.184 205.036C430.588 204.879 430.083 204.648 429.669 204.343C429.261 204.043 428.929 203.713 428.672 203.353L429.93 202.314C430.097 202.5 430.306 202.712 430.557 202.948C430.809 203.19 431.143 203.389 431.559 203.546C431.98 203.708 432.518 203.763 433.175 203.712C434.053 203.643 434.76 203.373 435.298 202.903C435.836 202.434 436.069 201.746 435.998 200.839L435.824 198.63L435.683 198.641C435.576 198.849 435.42 199.109 435.217 199.419C435.017 199.724 434.717 200.007 434.314 200.266C433.916 200.521 433.363 200.676 432.655 200.732C431.777 200.801 430.973 200.655 430.242 200.295C429.515 199.934 428.918 199.373 428.449 198.612C427.986 197.85 427.709 196.903 427.62 195.77C427.533 194.656 427.652 193.671 427.979 192.814C428.306 191.952 428.801 191.267 429.463 190.759C430.126 190.247 430.915 189.954 431.831 189.882C432.539 189.827 433.11 189.9 433.544 190.104C433.982 190.302 434.324 190.541 434.569 190.821C434.819 191.096 435.012 191.323 435.15 191.502L435.32 191.489L435.184 189.761L436.798 189.634L437.678 200.821C437.751 201.756 437.599 202.533 437.22 203.151C436.846 203.774 436.314 204.251 435.622 204.581C434.936 204.915 434.159 205.116 433.29 205.184ZM432.764 199.213C433.434 199.16 433.989 198.962 434.427 198.619C434.866 198.276 435.183 197.807 435.378 197.212C435.573 196.617 435.64 195.919 435.577 195.116C435.515 194.333 435.343 193.65 435.059 193.069C434.776 192.489 434.39 192.046 433.901 191.743C433.411 191.439 432.827 191.314 432.147 191.368C431.439 191.423 430.863 191.649 430.419 192.045C429.98 192.44 429.667 192.95 429.478 193.572C429.294 194.195 429.231 194.874 429.289 195.61C429.349 196.366 429.519 197.024 429.801 197.586C430.087 198.143 430.476 198.569 430.97 198.862C431.467 199.151 432.065 199.268 432.764 199.213ZM440.114 200.316L439.259 189.441L440.93 189.309L441.785 200.185L440.114 200.316ZM439.966 187.561C439.64 187.587 439.351 187.498 439.097 187.295C438.849 187.091 438.712 186.834 438.688 186.522C438.663 186.211 438.758 185.935 438.972 185.695C439.19 185.454 439.462 185.321 439.788 185.296C440.114 185.27 440.401 185.359 440.65 185.563C440.903 185.766 441.042 186.024 441.067 186.335C441.091 186.647 440.994 186.923 440.776 187.163C440.562 187.403 440.292 187.536 439.966 187.561ZM445.404 193.318L445.918 199.86L444.247 199.991L443.392 189.116L445.007 188.989L445.14 190.688L445.282 190.677C445.493 190.105 445.846 189.631 446.338 189.255C446.831 188.874 447.488 188.651 448.309 188.587C449.046 188.529 449.702 188.629 450.278 188.888C450.853 189.142 451.319 189.561 451.673 190.146C452.028 190.726 452.241 191.479 452.314 192.404L452.857 199.315L451.186 199.446L450.652 192.649C450.585 191.794 450.31 191.146 449.829 190.704C449.348 190.258 448.72 190.065 447.946 190.126C447.412 190.168 446.945 190.321 446.543 190.585C446.146 190.849 445.844 191.212 445.638 191.675C445.432 192.138 445.354 192.685 445.404 193.318ZM460.041 203.081C459.233 203.145 458.531 203.096 457.935 202.934C457.338 202.776 456.833 202.545 456.42 202.24C456.011 201.94 455.679 201.61 455.423 201.25L456.68 200.211C456.847 200.397 457.056 200.609 457.307 200.846C457.559 201.087 457.893 201.286 458.309 201.444C458.73 201.605 459.269 201.66 459.925 201.609C460.803 201.54 461.511 201.27 462.048 200.801C462.586 200.331 462.819 199.643 462.748 198.737L462.575 196.527L462.433 196.539C462.326 196.746 462.17 197.006 461.967 197.316C461.768 197.622 461.467 197.904 461.065 198.164C460.667 198.418 460.114 198.573 459.406 198.629C458.528 198.698 457.723 198.552 456.992 198.192C456.265 197.831 455.668 197.27 455.2 196.509C454.736 195.747 454.46 194.8 454.371 193.667C454.283 192.553 454.403 191.568 454.73 190.711C455.056 189.849 455.551 189.165 456.214 188.657C456.876 188.144 457.666 187.851 458.581 187.779C459.289 187.724 459.86 187.798 460.294 188.001C460.733 188.199 461.074 188.438 461.32 188.718C461.569 188.993 461.763 189.22 461.9 189.399L462.07 189.386L461.934 187.658L463.549 187.531L464.428 198.718C464.502 199.653 464.349 200.43 463.97 201.048C463.596 201.672 463.064 202.148 462.373 202.478C461.687 202.812 460.909 203.013 460.041 203.081ZM459.514 197.11C460.185 197.057 460.739 196.859 461.177 196.516C461.616 196.173 461.933 195.704 462.128 195.109C462.324 194.514 462.39 193.816 462.327 193.013C462.265 192.23 462.093 191.548 461.81 190.967C461.527 190.386 461.14 189.943 460.651 189.64C460.162 189.336 459.577 189.211 458.898 189.265C458.189 189.321 457.614 189.546 457.17 189.942C456.731 190.338 456.417 190.847 456.228 191.469C456.044 192.092 455.982 192.771 456.039 193.508C456.099 194.263 456.269 194.921 456.551 195.484C456.837 196.04 457.227 196.466 457.72 196.759C458.218 197.048 458.816 197.165 459.514 197.11Z" fill="#515151"/>
<rect x="227.84" y="238.068" width="20" height="20" rx="10" transform="rotate(-4.4948 227.84 238.068)" fill="url(#paint3_linear_97_614)"/>
<path fill-rule="evenodd" clip-rule="evenodd" d="M242.526 243.091L237.029 249.299L235.318 247.737C235.006 247.486 234.547 247.505 234.233 247.764C233.928 248.03 233.87 248.461 234.096 248.786L236.205 251.679C236.41 251.948 236.739 252.097 237.096 252.069C237.437 252.042 237.747 251.842 237.908 251.546C238.176 251.132 243.349 243.879 243.349 243.879C244.036 243.056 243.078 242.454 242.525 243.083L242.526 243.091Z" fill="white"/>
<path d="M258.842 252.683L257.702 238.183L262.602 237.798C263.74 237.708 264.686 237.84 265.44 238.194C266.199 238.543 266.78 239.051 267.184 239.717C267.588 240.384 267.824 241.144 267.891 241.998C267.958 242.853 267.844 243.643 267.55 244.369C267.26 245.095 266.771 245.694 266.081 246.166C265.391 246.633 264.482 246.911 263.354 247L259.842 247.276L259.72 245.718L263.175 245.447C263.954 245.385 264.569 245.202 265.019 244.896C265.47 244.589 265.784 244.199 265.96 243.724C266.141 243.245 266.209 242.715 266.163 242.134C266.117 241.554 265.968 241.043 265.715 240.602C265.467 240.161 265.094 239.829 264.597 239.607C264.099 239.38 263.456 239.298 262.668 239.36L259.581 239.602L260.598 252.545L258.842 252.683ZM273.894 251.757C273.205 251.811 272.569 251.73 271.987 251.515C271.405 251.295 270.929 250.95 270.56 250.48C270.19 250.006 269.977 249.414 269.921 248.706C269.872 248.083 269.955 247.569 270.171 247.162C270.385 246.751 270.689 246.419 271.082 246.164C271.476 245.91 271.916 245.709 272.403 245.562C272.894 245.409 273.39 245.28 273.89 245.174C274.544 245.037 275.075 244.932 275.482 244.857C275.894 244.777 276.19 244.675 276.37 244.552C276.555 244.428 276.637 244.232 276.616 243.963L276.611 243.906C276.556 243.207 276.323 242.68 275.91 242.323C275.502 241.965 274.913 241.817 274.144 241.877C273.346 241.94 272.734 242.164 272.308 242.549C271.883 242.934 271.593 243.332 271.441 243.743L269.81 243.301C270.041 242.618 270.378 242.073 270.821 241.668C271.269 241.258 271.768 240.957 272.318 240.767C272.873 240.571 273.424 240.452 273.971 240.409C274.32 240.381 274.725 240.392 275.185 240.442C275.649 240.486 276.104 240.619 276.548 240.84C276.998 241.062 277.385 241.418 277.708 241.91C278.032 242.403 278.228 243.081 278.296 243.945L278.859 251.11L277.188 251.241L277.072 249.769L276.987 249.775C276.892 250.02 276.723 250.288 276.48 250.577C276.237 250.867 275.903 251.124 275.479 251.347C275.055 251.57 274.527 251.707 273.894 251.757ZM274.031 250.236C274.692 250.184 275.239 250.01 275.672 249.715C276.109 249.419 276.427 249.057 276.626 248.628C276.83 248.199 276.914 247.758 276.878 247.305L276.758 245.775C276.694 245.866 276.544 245.956 276.309 246.046C276.078 246.13 275.809 246.211 275.502 246.287C275.199 246.359 274.902 246.425 274.613 246.485C274.327 246.541 274.096 246.588 273.918 246.625C273.489 246.716 273.09 246.84 272.722 246.997C272.359 247.149 272.072 247.36 271.86 247.628C271.653 247.891 271.566 248.235 271.599 248.66C271.645 249.241 271.894 249.663 272.347 249.926C272.804 250.185 273.366 250.288 274.031 250.236ZM281.311 250.917L280.456 240.042L282.127 239.91L282.982 250.786L281.311 250.917ZM281.163 238.162C280.837 238.188 280.548 238.099 280.294 237.896C280.045 237.692 279.909 237.434 279.884 237.123C279.86 236.811 279.954 236.536 280.168 236.296C280.387 236.055 280.659 235.922 280.985 235.897C281.31 235.871 281.598 235.96 281.846 236.164C282.1 236.367 282.239 236.624 282.263 236.936C282.288 237.247 282.191 237.523 281.972 237.764C281.758 238.004 281.489 238.137 281.163 238.162ZM289.568 250.496C288.662 250.567 287.844 250.401 287.114 249.998C286.384 249.59 285.79 248.981 285.332 248.172C284.874 247.358 284.599 246.375 284.509 245.223C284.419 244.081 284.537 243.074 284.863 242.203C285.189 241.332 285.683 240.64 286.345 240.127C287.008 239.614 287.797 239.322 288.713 239.25C289.421 239.194 289.99 239.268 290.419 239.472C290.852 239.671 291.189 239.91 291.43 240.191C291.675 240.466 291.866 240.693 292.004 240.872L292.145 240.861L291.724 235.508L293.395 235.377L294.535 249.878L292.921 250.005L292.79 248.334L292.591 248.349C292.484 248.557 292.329 248.821 292.126 249.141C291.923 249.456 291.621 249.748 291.219 250.017C290.817 250.282 290.267 250.441 289.568 250.496ZM289.677 248.977C290.347 248.924 290.9 248.705 291.335 248.32C291.77 247.929 292.083 247.413 292.275 246.771C292.466 246.124 292.53 245.39 292.465 244.569C292.401 243.757 292.227 243.056 291.944 242.466C291.659 241.871 291.273 241.421 290.783 241.118C290.294 240.81 289.709 240.682 289.029 240.736C288.321 240.791 287.745 241.019 287.302 241.42C286.863 241.815 286.55 242.332 286.362 242.968C286.179 243.6 286.118 244.299 286.178 245.063C286.239 245.837 286.412 246.531 286.698 247.145C286.988 247.754 287.381 248.227 287.878 248.563C288.379 248.894 288.978 249.032 289.677 248.977ZM306.817 249.14C305.769 249.223 304.847 249.062 304.05 248.659C303.258 248.252 302.624 247.646 302.148 246.843C301.676 246.034 301.396 245.073 301.308 243.959C301.221 242.845 301.347 241.848 301.686 240.966C302.029 240.079 302.548 239.369 303.242 238.835C303.941 238.295 304.781 237.987 305.763 237.91C306.329 237.865 306.896 237.916 307.463 238.061C308.03 238.207 308.557 238.474 309.044 238.863C309.53 239.247 309.935 239.776 310.258 240.449C310.582 241.122 310.784 241.965 310.863 242.98L310.919 243.688L302.536 244.347L302.422 242.903L309.106 242.377C309.058 241.764 308.892 241.226 308.609 240.764C308.33 240.301 307.956 239.948 307.486 239.705C307.02 239.461 306.485 239.363 305.881 239.411C305.215 239.463 304.652 239.674 304.192 240.042C303.736 240.406 303.399 240.86 303.181 241.404C302.962 241.949 302.877 242.52 302.924 243.12L302.999 244.083C303.064 244.904 303.26 245.589 303.588 246.138C303.921 246.682 304.354 247.083 304.887 247.34C305.42 247.592 306.024 247.692 306.699 247.639C307.138 247.605 307.529 247.512 307.874 247.362C308.222 247.206 308.517 246.993 308.757 246.722C308.996 246.447 309.172 246.115 309.284 245.726L310.934 246.052C310.807 246.613 310.559 247.117 310.191 247.564C309.822 248.006 309.351 248.366 308.78 248.644C308.207 248.917 307.553 249.082 306.817 249.14ZM320.953 236.858L317.786 248.05L316.087 248.183L311.21 237.624L313.023 237.482L316.706 245.912L316.819 245.903L319.14 237.001L320.953 236.858ZM327.603 247.506C326.555 247.588 325.633 247.428 324.837 247.025C324.045 246.617 323.411 246.012 322.934 245.209C322.462 244.4 322.183 243.439 322.095 242.325C322.008 241.211 322.133 240.213 322.472 239.332C322.816 238.445 323.335 237.735 324.029 237.201C324.727 236.661 325.568 236.353 326.549 236.276C327.116 236.231 327.683 236.282 328.25 236.427C328.817 236.572 329.344 236.84 329.83 237.229C330.316 237.613 330.721 238.142 331.045 238.815C331.369 239.488 331.57 240.331 331.65 241.346L331.706 242.054L323.322 242.713L323.209 241.269L329.893 240.743C329.845 240.13 329.679 239.592 329.396 239.13C329.117 238.667 328.742 238.314 328.272 238.071C327.807 237.827 327.272 237.729 326.667 237.777C326.002 237.829 325.439 238.04 324.979 238.408C324.523 238.772 324.186 239.226 323.967 239.77C323.749 240.314 323.663 240.886 323.71 241.486L323.786 242.449C323.851 243.27 324.047 243.955 324.375 244.504C324.708 245.048 325.14 245.448 325.674 245.706C326.206 245.958 326.81 246.058 327.485 246.005C327.924 245.971 328.316 245.878 328.66 245.727C329.009 245.572 329.303 245.359 329.543 245.088C329.783 244.813 329.959 244.481 330.071 244.092L331.721 244.418C331.594 244.979 331.346 245.483 330.977 245.93C330.608 246.372 330.138 246.732 329.566 247.01C328.994 247.283 328.34 247.448 327.603 247.506ZM335.189 240.099L335.703 246.641L334.032 246.773L333.177 235.897L334.792 235.77L334.925 237.47L335.067 237.458C335.278 236.886 335.631 236.412 336.123 236.036C336.616 235.655 337.273 235.433 338.094 235.368C338.831 235.31 339.487 235.411 340.063 235.669C340.638 235.923 341.104 236.343 341.458 236.928C341.813 237.508 342.026 238.26 342.099 239.185L342.642 246.096L340.971 246.227L340.437 239.43C340.37 238.576 340.095 237.928 339.614 237.486C339.133 237.039 338.505 236.846 337.731 236.907C337.197 236.949 336.73 237.102 336.328 237.366C335.931 237.63 335.629 237.994 335.423 238.456C335.217 238.919 335.139 239.467 335.189 240.099ZM354.231 245.413C353.325 245.484 352.507 245.318 351.777 244.915C351.047 244.507 350.453 243.898 349.995 243.089C349.537 242.274 349.262 241.291 349.172 240.14C349.082 238.997 349.2 237.991 349.526 237.12C349.852 236.249 350.346 235.557 351.008 235.044C351.671 234.531 352.46 234.239 353.376 234.167C354.084 234.111 354.653 234.185 355.082 234.389C355.515 234.588 355.852 234.827 356.093 235.107C356.338 235.383 356.529 235.61 356.667 235.789L356.808 235.778L356.387 230.425L358.058 230.294L359.198 244.794L357.584 244.921L357.453 243.25L357.254 243.266C357.147 243.474 356.992 243.738 356.789 244.058C356.586 244.373 356.284 244.665 355.882 244.934C355.48 245.198 354.93 245.358 354.231 245.413ZM354.34 243.894C355.01 243.841 355.563 243.622 355.998 243.236C356.433 242.846 356.746 242.33 356.938 241.688C357.129 241.041 357.193 240.307 357.128 239.486C357.064 238.674 356.89 237.973 356.607 237.382C356.322 236.787 355.936 236.338 355.446 236.035C354.957 235.726 354.372 235.599 353.692 235.652C352.984 235.708 352.408 235.936 351.965 236.337C351.526 236.732 351.213 237.248 351.025 237.885C350.842 238.517 350.781 239.215 350.841 239.98C350.902 240.754 351.075 241.448 351.361 242.062C351.651 242.671 352.044 243.144 352.541 243.48C353.042 243.811 353.641 243.949 354.34 243.894ZM368.397 239.597L367.891 233.168L369.562 233.037L370.417 243.913L368.746 244.044L368.602 242.203L368.488 242.212C368.277 242.784 367.917 243.285 367.41 243.714C366.902 244.139 366.237 244.384 365.416 244.448C364.736 244.502 364.12 244.4 363.568 244.145C363.015 243.884 362.564 243.464 362.215 242.883C361.865 242.298 361.654 241.543 361.581 240.618L361.038 233.707L362.709 233.576L363.243 240.373C363.305 241.166 363.577 241.781 364.058 242.218C364.543 242.655 365.133 242.846 365.827 242.792C366.242 242.759 366.656 242.619 367.069 242.373C367.487 242.127 367.824 241.772 368.083 241.31C368.346 240.848 368.45 240.277 368.397 239.597ZM372.88 243.719L372.025 232.843L373.639 232.717L373.768 234.359L373.882 234.35C374.037 233.797 374.362 233.332 374.855 232.956C375.348 232.58 375.92 232.366 376.571 232.315C376.694 232.305 376.848 232.296 377.032 232.286C377.216 232.276 377.356 232.272 377.451 232.274L377.585 233.974C377.527 233.964 377.396 233.953 377.191 233.941C376.99 233.923 376.778 233.923 376.556 233.941C376.028 233.982 375.565 234.13 375.167 234.385C374.773 234.634 374.471 234.962 374.261 235.368C374.055 235.769 373.971 236.215 374.01 236.705L374.551 243.588L372.88 243.719ZM379.7 243.183L378.845 232.307L380.516 232.176L381.371 243.051L379.7 243.183ZM379.552 230.428C379.227 230.453 378.937 230.365 378.684 230.161C378.435 229.958 378.298 229.7 378.274 229.389C378.249 229.077 378.344 228.801 378.558 228.561C378.776 228.321 379.048 228.188 379.374 228.162C379.7 228.137 379.987 228.226 380.236 228.429C380.489 228.633 380.628 228.89 380.653 229.202C380.677 229.513 380.58 229.789 380.362 230.029C380.148 230.269 379.878 230.402 379.552 230.428ZM384.99 236.184L385.504 242.727L383.833 242.858L382.978 231.982L384.593 231.855L384.726 233.555L384.868 233.544C385.079 232.971 385.432 232.497 385.925 232.121C386.417 231.741 387.074 231.518 387.895 231.453C388.632 231.395 389.288 231.496 389.864 231.755C390.44 232.008 390.905 232.428 391.259 233.013C391.614 233.593 391.827 234.345 391.9 235.271L392.443 242.181L390.772 242.312L390.238 235.515C390.171 234.661 389.897 234.013 389.415 233.571C388.934 233.124 388.306 232.931 387.532 232.992C386.998 233.034 386.531 233.187 386.129 233.452C385.732 233.716 385.43 234.079 385.224 234.541C385.018 235.004 384.94 235.552 384.99 236.184ZM399.627 245.948C398.82 246.011 398.118 245.962 397.521 245.8C396.924 245.643 396.419 245.412 396.006 245.107C395.597 244.807 395.265 244.476 395.009 244.117L396.266 243.077C396.433 243.264 396.642 243.475 396.893 243.712C397.145 243.953 397.479 244.153 397.895 244.31C398.316 244.472 398.855 244.527 399.511 244.475C400.389 244.406 401.097 244.137 401.635 243.667C402.172 243.197 402.406 242.509 402.334 241.603L402.161 239.394L402.019 239.405C401.912 239.613 401.757 239.872 401.553 240.183C401.354 240.488 401.053 240.77 400.651 241.03C400.253 241.285 399.7 241.44 398.992 241.495C398.114 241.564 397.309 241.419 396.578 241.058C395.851 240.697 395.254 240.136 394.786 239.375C394.322 238.614 394.046 237.667 393.957 236.534C393.869 235.42 393.989 234.434 394.316 233.577C394.642 232.716 395.137 232.031 395.8 231.523C396.462 231.01 397.252 230.718 398.167 230.646C398.875 230.59 399.446 230.664 399.88 230.867C400.319 231.066 400.66 231.305 400.906 231.585C401.155 231.86 401.349 232.087 401.486 232.266L401.656 232.252L401.52 230.525L403.135 230.398L404.014 241.585C404.088 242.52 403.935 243.296 403.556 243.915C403.182 244.538 402.65 245.014 401.959 245.344C401.273 245.678 400.495 245.88 399.627 245.948ZM399.1 239.976C399.771 239.924 400.325 239.726 400.763 239.383C401.202 239.039 401.519 238.57 401.714 237.976C401.91 237.381 401.976 236.682 401.913 235.88C401.851 235.096 401.679 234.414 401.396 233.833C401.113 233.252 400.726 232.81 400.237 232.506C399.748 232.203 399.163 232.078 398.484 232.131C397.776 232.187 397.2 232.413 396.756 232.809C396.317 233.204 396.003 233.713 395.814 234.336C395.631 234.958 395.568 235.638 395.626 236.374C395.685 237.129 395.855 237.788 396.137 238.35C396.423 238.907 396.813 239.332 397.306 239.626C397.804 239.915 398.402 240.031 399.1 239.976ZM411.686 240.668L410.547 226.168L412.218 226.036L412.638 231.389L412.78 231.378C412.888 231.179 413.039 230.925 413.233 230.616C413.431 230.301 413.727 230.012 414.119 229.748C414.516 229.479 415.069 229.317 415.777 229.262C416.692 229.19 417.518 229.355 418.252 229.758C418.987 230.161 419.583 230.767 420.041 231.577C420.499 232.386 420.772 233.362 420.862 234.504C420.953 235.656 420.835 236.67 420.51 237.545C420.184 238.416 419.693 239.11 419.035 239.628C418.377 240.14 417.595 240.432 416.689 240.503C415.99 240.558 415.422 240.486 414.984 240.288C414.545 240.085 414.201 239.844 413.951 239.564C413.7 239.28 413.506 239.043 413.368 238.855L413.169 238.87L413.301 240.541L411.686 240.668ZM412.902 235.101C412.966 235.923 413.144 236.638 413.434 237.247C413.723 237.851 414.113 238.312 414.604 238.629C415.094 238.942 415.674 239.073 416.344 239.02C417.043 238.965 417.611 238.735 418.05 238.33C418.492 237.92 418.807 237.392 418.994 236.746C419.185 236.094 419.25 235.381 419.189 234.607C419.129 233.842 418.957 233.163 418.673 232.568C418.393 231.967 418.003 231.506 417.502 231.185C417.006 230.858 416.404 230.723 415.696 230.778C415.017 230.832 414.459 231.049 414.024 231.43C413.588 231.806 413.276 232.31 413.088 232.942C412.9 233.57 412.838 234.29 412.902 235.101ZM427.823 239.628C426.775 239.71 425.853 239.55 425.057 239.147C424.265 238.739 423.631 238.134 423.154 237.33C422.682 236.522 422.402 235.561 422.315 234.447C422.227 233.333 422.353 232.335 422.692 231.454C423.036 230.567 423.555 229.857 424.249 229.322C424.947 228.783 425.787 228.475 426.769 228.397C427.336 228.353 427.902 228.403 428.47 228.549C429.037 228.694 429.563 228.961 430.05 229.351C430.536 229.735 430.941 230.264 431.265 230.936C431.588 231.609 431.79 232.453 431.87 233.468L431.925 234.176L423.542 234.835L423.429 233.391L430.113 232.865C430.064 232.251 429.899 231.714 429.615 231.251C429.337 230.789 428.962 230.436 428.492 230.193C428.026 229.949 427.491 229.851 426.887 229.898C426.222 229.951 425.659 230.161 425.199 230.53C424.743 230.893 424.406 231.347 424.187 231.892C423.969 232.436 423.883 233.008 423.93 233.608L424.006 234.57C424.07 235.392 424.267 236.077 424.595 236.626C424.927 237.17 425.36 237.57 425.893 237.827C426.426 238.08 427.03 238.18 427.705 238.127C428.144 238.092 428.536 238 428.88 237.849C429.229 237.694 429.523 237.48 429.763 237.21C430.003 236.935 430.178 236.602 430.29 236.214L431.94 236.54C431.813 237.101 431.566 237.605 431.197 238.052C430.828 238.494 430.358 238.854 429.786 239.132C429.214 239.405 428.559 239.57 427.823 239.628ZM438.127 227.647L438.238 229.063L432.602 229.506L432.491 228.09L438.127 227.647ZM433.929 225.355L435.6 225.224L436.415 235.59C436.452 236.062 436.548 236.41 436.703 236.636C436.863 236.856 437.055 236.998 437.278 237.061C437.506 237.119 437.743 237.138 437.988 237.119C438.172 237.104 438.322 237.083 438.439 237.055C438.555 237.022 438.648 236.996 438.718 236.976L439.176 238.45C439.066 238.502 438.911 238.557 438.711 238.615C438.512 238.678 438.257 238.722 437.945 238.747C437.473 238.784 437.002 238.719 436.533 238.551C436.069 238.384 435.672 238.104 435.342 237.712C435.016 237.319 434.829 236.807 434.779 236.174L433.929 225.355ZM444.118 238.375C443.428 238.43 442.793 238.349 442.211 238.133C441.628 237.913 441.152 237.568 440.783 237.099C440.413 236.624 440.2 236.033 440.145 235.325C440.096 234.702 440.179 234.187 440.394 233.781C440.608 233.37 440.912 233.037 441.306 232.783C441.699 232.529 442.139 232.328 442.626 232.181C443.118 232.028 443.613 231.899 444.113 231.793C444.767 231.656 445.298 231.55 445.705 231.475C446.117 231.396 446.413 231.294 446.593 231.171C446.778 231.047 446.86 230.85 446.839 230.581L446.835 230.525C446.78 229.826 446.546 229.298 446.133 228.941C445.725 228.584 445.136 228.435 444.367 228.496C443.569 228.559 442.957 228.782 442.532 229.167C442.106 229.552 441.817 229.95 441.664 230.361L440.033 229.919C440.265 229.236 440.602 228.692 441.045 228.287C441.492 227.876 441.991 227.576 442.541 227.386C443.096 227.19 443.647 227.071 444.194 227.028C444.544 227 444.948 227.011 445.408 227.06C445.872 227.105 446.327 227.238 446.772 227.459C447.221 227.68 447.608 228.037 447.932 228.529C448.255 229.021 448.451 229.699 448.519 230.563L449.082 237.729L447.411 237.86L447.295 236.387L447.21 236.394C447.116 236.639 446.947 236.906 446.704 237.196C446.46 237.486 446.127 237.743 445.703 237.966C445.278 238.189 444.75 238.326 444.118 238.375ZM444.254 236.854C444.915 236.802 445.462 236.629 445.895 236.334C446.332 236.038 446.651 235.676 446.85 235.247C447.053 234.818 447.137 234.376 447.102 233.923L446.981 232.394C446.917 232.484 446.768 232.575 446.533 232.664C446.302 232.749 446.033 232.829 445.725 232.906C445.422 232.977 445.126 233.043 444.836 233.104C444.551 233.16 444.319 233.206 444.142 233.244C443.712 233.335 443.313 233.459 442.946 233.616C442.582 233.768 442.295 233.978 442.083 234.247C441.876 234.51 441.789 234.854 441.822 235.279C441.868 235.859 442.117 236.281 442.57 236.545C443.028 236.804 443.589 236.907 444.254 236.854Z" fill="#515151"/>
</g>
<defs>
<filter id="filter0_d_97_614" x="118.574" y="56.6562" width="236" height="236" filterUnits="userSpaceOnUse" color-interpolation-filters="sRGB">
<feFlood flood-opacity="0" result="BackgroundImageFix"/>
<feColorMatrix in="SourceAlpha" type="matrix" values="0 0 0 0 0 0 0 0 0 0 0 0 0 0 0 0 0 0 127 0" result="hardAlpha"/>
<feOffset dy="1"/>
<feGaussianBlur stdDeviation="1"/>
<feColorMatrix type="matrix" values="0 0 0 0 0.0392157 0 0 0 0 0.0496732 0 0 0 0 0.0705882 0 0 0 0.05 0"/>
<feBlend mode="normal" in2="BackgroundImageFix" result="effect1_dropShadow_97_614"/>
<feBlend mode="normal" in="SourceGraphic" in2="effect1_dropShadow_97_614" result="shape"/>
</filter>
<filter id="filter1_d_97_614" x="150.907" y="-1.50488" width="404.673" height="366.094" filterUnits="userSpaceOnUse" color-interpolation-filters="sRGB">
<feFlood flood-opacity="0" result="BackgroundImageFix"/>
<feColorMatrix in="SourceAlpha" type="matrix" values="0 0 0 0 0 0 0 0 0 0 0 0 0 0 0 0 0 0 127 0" result="hardAlpha"/>
<feOffset dy="8"/>
<feGaussianBlur stdDeviation="20"/>
<feComposite in2="hardAlpha" operator="out"/>
<feColorMatrix type="matrix" values="0 0 0 0 0 0 0 0 0 0 0 0 0 0 0 0 0 0 0.1 0"/>
<feBlend mode="normal" in2="BackgroundImageFix" result="effect1_dropShadow_97_614"/>
<feBlend mode="normal" in="SourceGraphic" in2="effect1_dropShadow_97_614" result="shape"/>
</filter>
<linearGradient id="paint0_linear_97_614" x1="120.574" y1="173.656" x2="354.093" y2="177.869" gradientUnits="userSpaceOnUse">
<stop stop-color="#6699FF"/>
<stop offset="1" stop-color="#FF3366"/>
</linearGradient>
<linearGradient id="paint1_linear_97_614" x1="221.884" y1="172.302" x2="242.015" y2="172.665" gradientUnits="userSpaceOnUse">
<stop stop-color="#6699FF"/>
<stop offset="1" stop-color="#FF3366"/>
</linearGradient>
<linearGradient id="paint2_linear_97_614" x1="224.862" y1="210.185" x2="244.993" y2="210.548" gradientUnits="userSpaceOnUse">
<stop stop-color="#6699FF"/>
<stop offset="1" stop-color="#FF3366"/>
</linearGradient>
<linearGradient id="paint3_linear_97_614" x1="227.84" y1="248.068" x2="247.971" y2="248.431" gradientUnits="userSpaceOnUse">
<stop stop-color="#6699FF"/>
<stop offset="1" stop-color="#FF3366"/>
</linearGradient>
</defs>
</svg>
