<svg width="535" height="299" viewBox="0 0 535 299" fill="none" xmlns="http://www.w3.org/2000/svg">
<g opacity="0.3" filter="url(#filter0_d_99_642)">
<rect x="89.0144" y="32.0452" width="263.482" height="263.482" rx="131.741" fill="url(#paint0_linear_99_642)"/>
</g>
<path d="M5.4 63C5.4 49.24 8.04 38.4 13.32 30.48C18.68 22.56 27.28 18.6 39.12 18.6C50.96 18.6 59.52 22.56 64.8 30.48C70.16 38.4 72.84 49.24 72.84 63C72.84 76.92 70.16 87.84 64.8 95.76C59.52 103.68 50.96 107.64 39.12 107.64C27.28 107.64 18.68 103.68 13.32 95.76C8.04 87.84 5.4 76.92 5.4 63ZM52.68 63C52.68 54.92 51.8 48.72 50.04 44.4C48.28 40 44.64 37.8 39.12 37.8C33.6 37.8 29.96 40 28.2 44.4C26.44 48.72 25.56 54.92 25.56 63C25.56 68.44 25.88 72.96 26.52 76.56C27.16 80.08 28.44 82.96 30.36 85.2C32.36 87.36 35.28 88.44 39.12 88.44C42.96 88.44 45.84 87.36 47.76 85.2C49.76 82.96 51.08 80.08 51.72 76.56C52.36 72.96 52.68 68.44 52.68 63ZM82.0012 45.12C82.3212 36.56 85.1212 29.96 90.4012 25.32C95.6812 20.68 102.841 18.36 111.881 18.36C117.881 18.36 123.001 19.4 127.241 21.48C131.561 23.56 134.801 26.4 136.961 30C139.201 33.6 140.321 37.64 140.321 42.12C140.321 47.4 139.001 51.72 136.361 55.08C133.721 58.36 130.641 60.6 127.121 61.8V62.28C131.681 63.8 135.281 66.32 137.921 69.84C140.561 73.36 141.881 77.88 141.881 83.4C141.881 88.36 140.721 92.76 138.401 96.6C136.161 100.36 132.841 103.32 128.441 105.48C124.121 107.64 118.961 108.72 112.961 108.72C103.361 108.72 95.6812 106.36 89.9212 101.64C84.2412 96.92 81.2412 89.8 80.9212 80.28H100.841C100.921 83.8 101.921 86.6 103.841 88.68C105.761 90.68 108.561 91.68 112.241 91.68C115.361 91.68 117.761 90.8 119.441 89.04C121.201 87.2 122.081 84.8 122.081 81.84C122.081 78 120.841 75.24 118.361 73.56C115.961 71.8 112.081 70.92 106.721 70.92H102.881V54.24H106.721C110.801 54.24 114.081 53.56 116.561 52.2C119.121 50.76 120.401 48.24 120.401 44.64C120.401 41.76 119.601 39.52 118.001 37.92C116.401 36.32 114.201 35.52 111.401 35.52C108.361 35.52 106.081 36.44 104.561 38.28C103.121 40.12 102.281 42.4 102.041 45.12H82.0012Z" fill="#B3B3B3"/>
<g clip-path="url(#clip0_99_642)">
<rect x="157.04" y="110.026" width="354.356" height="155.478" rx="77.7392" transform="rotate(-10.7384 157.04 110.026)" fill="white"/>
<rect x="227.12" y="134" width="225" height="84" rx="42" transform="rotate(-11.0568 227.12 134)" fill="black" fill-opacity="0.01"/>
<rect x="225.947" y="133.21" width="227" height="86" rx="43" transform="rotate(-11.0568 225.947 133.21)" stroke="white" stroke-opacity="0.6" stroke-width="2"/>
<g filter="url(#filter2_d_99_642)">
<rect x="227.12" y="134" width="225" height="81" rx="40.5" transform="rotate(-11.0568 227.12 134)" fill="url(#paint1_linear_99_642)"/>
<rect x="225.947" y="133.21" width="227" height="83" rx="41.5" transform="rotate(-11.0568 225.947 133.21)" stroke="url(#paint2_linear_99_642)" stroke-width="2"/>
<path d="M300.085 151.284L302.405 163.155C302.659 164.456 303.193 165.388 304.007 165.952C304.817 166.497 305.836 166.65 307.064 166.41C308.31 166.167 309.205 165.64 309.75 164.829C310.292 164.001 310.436 162.936 310.182 161.635L307.862 149.764L311.737 149.007L314.051 160.851C314.37 162.481 314.283 163.934 313.79 165.21C313.313 166.463 312.534 167.49 311.454 168.291C310.392 169.088 309.138 169.628 307.691 169.911C306.262 170.19 304.906 170.16 303.622 169.821C302.357 169.479 301.276 168.815 300.38 167.83C299.48 166.827 298.871 165.51 298.552 163.879L296.238 152.035L300.085 151.284ZM319.954 153.792C320.313 152.999 320.878 152.289 321.65 151.663C322.436 151.015 323.388 150.582 324.505 150.363C325.806 150.109 327.041 150.2 328.211 150.638C329.399 151.071 330.411 151.824 331.249 152.897C332.101 153.948 332.679 155.252 332.983 156.809C333.287 158.366 333.246 159.81 332.86 161.141C332.488 162.45 331.835 163.538 330.901 164.405C329.986 165.269 328.878 165.828 327.577 166.082C326.459 166.3 325.425 166.265 324.475 165.975C323.543 165.681 322.743 165.239 322.076 164.646L323.917 174.072L320.07 174.824L315.678 152.345L319.525 151.593L319.954 153.792ZM329.053 157.577C328.874 156.661 328.528 155.911 328.014 155.326C327.516 154.72 326.921 154.304 326.23 154.077C325.557 153.847 324.864 153.802 324.149 153.942C323.453 154.078 322.829 154.39 322.278 154.878C321.741 155.344 321.347 155.954 321.095 156.707C320.861 157.456 320.833 158.289 321.012 159.205C321.191 160.121 321.53 160.882 322.029 161.489C322.546 162.091 323.143 162.517 323.819 162.765C324.51 162.991 325.204 163.037 325.9 162.9C326.614 162.761 327.238 162.449 327.771 161.964C328.322 161.476 328.715 160.857 328.949 160.108C329.201 159.355 329.236 158.511 329.053 157.577ZM336.601 142.95L340.575 163.285L336.727 164.037L332.754 143.702L336.601 142.95ZM350.634 161.576C349.169 161.863 347.787 161.8 346.489 161.388C345.188 160.957 344.082 160.213 343.171 159.155C342.279 158.093 341.681 156.783 341.377 155.226C341.072 153.669 341.143 152.228 341.588 150.905C342.051 149.578 342.816 148.478 343.881 147.604C344.943 146.712 346.207 146.122 347.673 145.836C349.138 145.55 350.531 145.62 351.851 146.047C353.167 146.455 354.28 147.189 355.191 148.247C356.12 149.302 356.736 150.608 357.04 152.165C357.345 153.722 357.256 155.166 356.774 156.496C356.311 157.823 355.539 158.935 354.459 159.83C353.393 160.704 352.118 161.286 350.634 161.576ZM349.979 158.224C350.675 158.088 351.294 157.796 351.834 157.348C352.389 156.878 352.783 156.268 353.017 155.519C353.251 154.769 353.273 153.909 353.083 152.938C352.8 151.491 352.199 150.458 351.279 149.839C350.374 149.198 349.372 148.985 348.273 149.199C347.174 149.414 346.326 149.989 345.728 150.923C345.146 151.836 344.996 153.016 345.279 154.463C345.562 155.911 346.137 156.958 347.006 157.606C347.889 158.233 348.88 158.438 349.979 158.224ZM358.313 151.859C358.012 150.32 358.048 148.896 358.42 147.588C358.81 146.275 359.464 145.196 360.383 144.351C361.321 143.502 362.44 142.95 363.74 142.696C364.876 142.474 365.91 142.51 366.842 142.803C367.793 143.093 368.593 143.536 369.242 144.132L368.818 141.961L372.692 141.204L375.667 156.428L371.792 157.185L371.358 154.959C371.003 155.77 370.432 156.5 369.646 157.148C368.874 157.774 367.92 158.198 366.784 158.42C365.502 158.671 364.265 158.57 363.074 158.118C361.901 157.663 360.886 156.901 360.031 155.832C359.19 154.741 358.617 153.416 358.313 151.859ZM370.305 149.573C370.122 148.639 369.784 147.878 369.288 147.29C368.789 146.683 368.195 146.267 367.504 146.041C366.809 145.796 366.105 145.743 365.39 145.883C364.676 146.023 364.05 146.326 363.514 146.792C362.977 147.258 362.583 147.868 362.33 148.621C362.093 149.352 362.064 150.175 362.243 151.091C362.422 152.007 362.762 152.778 363.265 153.402C363.782 154.005 364.379 154.43 365.055 154.679C365.749 154.923 366.445 154.978 367.141 154.842C367.855 154.702 368.49 154.397 369.045 153.928C369.596 153.439 369.99 152.83 370.228 152.099C370.462 151.349 370.488 150.507 370.305 149.573ZM376.388 148.327C376.087 146.788 376.122 145.365 376.494 144.056C376.885 142.743 377.548 141.662 378.486 140.814C379.423 139.965 380.542 139.413 381.843 139.159C382.832 138.966 383.818 139.001 384.802 139.265C385.782 139.511 386.607 139.94 387.278 140.55L385.866 133.323L389.768 132.561L393.742 152.896L389.84 153.658L389.399 151.405C389.07 152.249 388.519 152.984 387.748 153.611C386.976 154.237 386.022 154.661 384.887 154.883C383.604 155.134 382.367 155.033 381.176 154.581C379.984 154.129 378.961 153.369 378.105 152.3C377.264 151.209 376.692 149.885 376.388 148.327ZM388.38 146.041C388.197 145.107 387.858 144.346 387.363 143.758C386.864 143.151 386.269 142.735 385.578 142.509C384.884 142.264 384.179 142.211 383.465 142.351C382.75 142.491 382.125 142.794 381.588 143.26C381.052 143.726 380.657 144.336 380.405 145.089C380.168 145.82 380.138 146.643 380.317 147.559C380.496 148.475 380.837 149.246 381.339 149.87C381.857 150.473 382.453 150.898 383.129 151.147C383.824 151.391 384.519 151.446 385.215 151.31C385.93 151.17 386.565 150.865 387.119 150.396C387.671 149.907 388.065 149.298 388.303 148.567C388.537 147.817 388.562 146.975 388.38 146.041Z" fill="white"/>
</g>
</g>
<defs>
<filter id="filter0_d_99_642" x="87.0144" y="31.0452" width="267.482" height="267.482" filterUnits="userSpaceOnUse" color-interpolation-filters="sRGB">
<feFlood flood-opacity="0" result="BackgroundImageFix"/>
<feColorMatrix in="SourceAlpha" type="matrix" values="0 0 0 0 0 0 0 0 0 0 0 0 0 0 0 0 0 0 127 0" result="hardAlpha"/>
<feOffset dy="1"/>
<feGaussianBlur stdDeviation="1"/>
<feColorMatrix type="matrix" values="0 0 0 0 0.0392157 0 0 0 0 0.0496732 0 0 0 0 0.0705882 0 0 0 0.05 0"/>
<feBlend mode="normal" in2="BackgroundImageFix" result="effect1_dropShadow_99_642"/>
<feBlend mode="normal" in="SourceGraphic" in2="effect1_dropShadow_99_642" result="shape"/>
</filter>
<filter id="filter2_d_99_642" x="225.12" y="89.8494" width="240.358" height="126.647" filterUnits="userSpaceOnUse" color-interpolation-filters="sRGB">
<feFlood flood-opacity="0" result="BackgroundImageFix"/>
<feColorMatrix in="SourceAlpha" type="matrix" values="0 0 0 0 0 0 0 0 0 0 0 0 0 0 0 0 0 0 127 0" result="hardAlpha"/>
<feOffset dy="1"/>
<feGaussianBlur stdDeviation="1"/>
<feColorMatrix type="matrix" values="0 0 0 0 0.0392157 0 0 0 0 0.0496732 0 0 0 0 0.0705882 0 0 0 0.05 0"/>
<feBlend mode="normal" in2="BackgroundImageFix" result="effect1_dropShadow_99_642"/>
<feBlend mode="normal" in="SourceGraphic" in2="effect1_dropShadow_99_642" result="shape"/>
</filter>
<linearGradient id="paint0_linear_99_642" x1="89.0144" y1="163.786" x2="354.221" y2="168.571" gradientUnits="userSpaceOnUse">
<stop stop-color="#6699FF"/>
<stop offset="1" stop-color="#FF3366"/>
</linearGradient>
<linearGradient id="paint1_linear_99_642" x1="227.12" y1="174.5" x2="453.099" y2="185.825" gradientUnits="userSpaceOnUse">
<stop stop-color="#6699FF"/>
<stop offset="1" stop-color="#FF3366"/>
</linearGradient>
<linearGradient id="paint2_linear_99_642" x1="227.12" y1="174.5" x2="453.099" y2="185.825" gradientUnits="userSpaceOnUse">
<stop stop-color="#6699FF"/>
<stop offset="1" stop-color="#FF3366"/>
</linearGradient>
<clipPath id="clip0_99_642">
<rect x="157.04" y="110.026" width="354.356" height="155.478" rx="77.7392" transform="rotate(-10.7384 157.04 110.026)" fill="white"/>
</clipPath>
</defs>
</svg>
